<svg id="Layer_1" data-name="Layer 1" xmlns="http://www.w3.org/2000/svg" viewBox="0 0 290 200"><defs><style>.cls-1{fill:#f79a6d;}.cls-2{fill:#231f20;}.cls-3{stroke:#000;stroke-miterlimit:10;stroke-width:0.25px;}.cls-4{fill:#fff;}.cls-5{fill:#ea5f29;}</style></defs><path class="cls-1" d="M125.74,107.46a55.82,55.82,0,1,1-55.82-55.8A55.82,55.82,0,0,1,125.74,107.46Z"/><circle class="cls-1" cx="228.18" cy="107.61" r="55.82"/><path class="cls-2" d="M223.76,162.69a59.5,59.5,0,1,1,59.5-59.5A59.57,59.57,0,0,1,223.76,162.69Zm0-111.63a52.14,52.14,0,1,0,52.14,52.13A52.18,52.18,0,0,0,223.76,51.06Z"/><path class="cls-2" d="M65.5,162.55a59.5,59.5,0,1,1,59.5-59.5A59.57,59.57,0,0,1,65.5,162.55Zm0-111.63a52.14,52.14,0,1,0,52.14,52.13A52.19,52.19,0,0,0,65.5,50.92Z"/><path class="cls-3" d="M70.88,98.39a.71.71,0,0,0,.17.86,7.18,7.18,0,0,0,.79.52,5.44,5.44,0,0,0,.51-.24.68.68,0,0,0,.34-.81,1.13,1.13,0,0,0-1-.86A1,1,0,0,0,70.88,98.39Z"/><path class="cls-3" d="M50.72,94.1a.78.78,0,0,0,.69.55c.34,0,.47-.25.58-.51a2,2,0,0,0,.14-.39.6.6,0,0,0-.71-.75,4.14,4.14,0,0,0-.75.31A3.11,3.11,0,0,0,50.72,94.1Z"/><path class="cls-3" d="M38.31,91.31a.8.8,0,0,0,.8.37c.35-.05.39-.34.49-.63l-.17-.36a1,1,0,0,0-.09-.18.65.65,0,0,0-.83-.21A.76.76,0,0,0,38.31,91.31Z"/><path class="cls-3" d="M79.67,126.06c-.5,0-.66.28-.76.67.14.37.29.72.82.72l.59-.66C80.22,126.41,80.14,126.08,79.67,126.06Z"/><path class="cls-3" d="M77.59,93.3a3.5,3.5,0,0,0-.37-.31,4.87,4.87,0,0,0-.55.26c-.42.27-.44.55-.08.94a4,4,0,0,0,.35.26,3,3,0,0,0,.48-.22C77.87,94,77.91,93.71,77.59,93.3Z"/><path class="cls-3" d="M53.63,117a2.47,2.47,0,0,0,.53.29,1.26,1.26,0,0,0,.27-.19.7.7,0,0,0-.38-1.19.47.47,0,0,0-.53.24A.67.67,0,0,0,53.63,117Z"/><path class="cls-3" d="M90.35,81.24a4,4,0,0,0,.17-.36,5.39,5.39,0,0,0-.31-.59,1,1,0,0,0-.26-.21c-.37.15-.81.21-.91.83.26.19.47.37.7.52S90.16,81.51,90.35,81.24Z"/><path class="cls-3" d="M55.87,124a1.1,1.1,0,0,0,.65.91,3.92,3.92,0,0,0,.32-.25,2.61,2.61,0,0,0,.27-.31.53.53,0,0,0-.4-.84A.8.8,0,0,0,55.87,124Z"/><path class="cls-3" d="M89.16,86.35c.32,0,.67,0,1,0a.35.35,0,0,0,.23-.56,7.56,7.56,0,0,0-.56-.57C88.9,85.66,88.88,85.68,89.16,86.35Z"/><path class="cls-3" d="M69.87,112a.79.79,0,0,0-.37-1,.48.48,0,0,0-.71.19,1.82,1.82,0,0,0-.09.56C69.07,112,69.41,112.18,69.87,112Z"/><path class="cls-3" d="M60.87,98.88c0,.26.26.44.6.44a.55.55,0,0,0,.64-.62c0-.34-.19-.58-.45-.6A.82.82,0,0,0,60.87,98.88Z"/><path class="cls-3" d="M59.46,136.21c-.32-.2-.6-.09-.85.29a.48.48,0,0,0,.28.74,4.75,4.75,0,0,0,.85,0,2.46,2.46,0,0,0,0-.66A.65.65,0,0,0,59.46,136.21Z"/><path class="cls-3" d="M92,99.15c.42.32.85.14.89-.37a1.76,1.76,0,0,0,0-.51.45.45,0,0,0-.6-.23,8.16,8.16,0,0,0-.66.66A4,4,0,0,0,92,99.15Z"/><path class="cls-3" d="M81.68,123.62a.55.55,0,0,0-.24.55.58.58,0,0,0,.56.39,1.08,1.08,0,0,0,.86-.37,1.58,1.58,0,0,0-.14-.36A.63.63,0,0,0,81.68,123.62Z"/><path class="cls-3" d="M47,108.81a.55.55,0,0,0-.51-.55.6.6,0,0,0-.73.54.56.56,0,0,0,.46.69A.82.82,0,0,0,47,108.81Z"/><path class="cls-3" d="M46,94a1.07,1.07,0,0,0,.16.14.53.53,0,0,0,.59,0,.56.56,0,0,0,.26-.53.76.76,0,0,0-.53-.74,1.86,1.86,0,0,0-.37.14C45.71,93.32,45.69,93.62,46,94Z"/><path class="cls-3" d="M53.43,101.31A.79.79,0,0,0,54,102a1.34,1.34,0,0,0,.64-.92c-.11-.11-.19-.22-.3-.31a.49.49,0,0,0-.58-.1A.58.58,0,0,0,53.43,101.31Z"/><path class="cls-3" d="M86.7,88.34a2.27,2.27,0,0,0,.11.36c.13.24.17.59.52.6s.44-.39.59-.65c0-.05,0-.13,0-.23s-.2-.33-.3-.48C87.23,87.87,87,88.08,86.7,88.34Z"/><path class="cls-3" d="M99.25,106.21c0,.41.29.61.66.74a1.3,1.3,0,0,0,.57-.89l-.53-.55C99.55,105.68,99.26,105.87,99.25,106.21Z"/><path class="cls-3" d="M43.39,122.05a.74.74,0,0,0,1-.1c.15-.15.09-.4-.18-.73a.52.52,0,0,0-.18-.1,1.37,1.37,0,0,0-1,.51A3.32,3.32,0,0,0,43.39,122.05Z"/><path class="cls-3" d="M41.48,77.81a.48.48,0,0,0-.65.13.45.45,0,0,0,0,.58c.28.37.6.59,1.09.34A.79.79,0,0,0,41.48,77.81Z"/><path class="cls-3" d="M64.29,102c.52-.83.51-.89-.14-1.53a.79.79,0,0,0,.14,1.53Z"/><path class="cls-3" d="M48.34,91.15c.22.24.46.48.76.79l.53-.87-.46-.63A1,1,0,0,0,48.34,91.15Z"/><path class="cls-3" d="M38.9,126.23c.15.17.29.35.45.51a.09.09,0,0,1,0,0C39.36,126.41,39.13,126.32,38.9,126.23Z"/><path class="cls-3" d="M54.22,136.28a1.7,1.7,0,0,0-.32.1l.75.26C54.59,136.42,54.42,136.24,54.22,136.28Z"/><path class="cls-3" d="M88,114.13a.48.48,0,0,0-.28-.5,1.67,1.67,0,0,0-.33-.08h-.28a.48.48,0,0,0-.42.39.4.4,0,0,0,.26.5,1.46,1.46,0,0,0,.68.11A.42.42,0,0,0,88,114.13Z"/><path class="cls-3" d="M92.28,89.13a.52.52,0,0,0,.56-.37.81.81,0,0,0-.76-.84.55.55,0,0,0-.47.49A.88.88,0,0,0,92.28,89.13Z"/><path class="cls-3" d="M73.79,121.84c.78.35.78.35,1.2-.13l-.49-.93C73.86,121,74.06,121.54,73.79,121.84Z"/><path class="cls-3" d="M52.12,134a2,2,0,0,0-.41-.21c-.12,0-.32,0-.38,0a1.78,1.78,0,0,0-.39.71c0,.18.19.39.3.59C51.85,134.82,51.84,134.81,52.12,134Z"/><path class="cls-3" d="M64.59,105.93c-.34,0-.72-.07-.91.31s.09.63.36,1l.94-1.16A1.66,1.66,0,0,0,64.59,105.93Z"/><path class="cls-3" d="M92.26,93a.53.53,0,0,0-.43.62,8.06,8.06,0,0,0,.42.81c.52-.28.69-.61.57-1.08A.51.51,0,0,0,92.26,93Z"/><path class="cls-3" d="M74.09,96.57a.47.47,0,0,0,.15.13.52.52,0,0,0,.77-.27c.12-.37,0-.8-.34-.85a.64.64,0,0,0-.47.11,3,3,0,0,0-.36.56Z"/><path class="cls-3" d="M87.18,83c-.31,0-.47.16-.46.54s.2.7.47.67a.59.59,0,0,0,.57-.61A.55.55,0,0,0,87.18,83Z"/><path class="cls-3" d="M59.58,126.29,59,126a2.85,2.85,0,0,0-.43.59.62.62,0,0,0,0,.48.39.39,0,0,0,.53.19,1.69,1.69,0,0,0,.58-.55A.32.32,0,0,0,59.58,126.29Z"/><path class="cls-3" d="M79.39,115.91a.66.66,0,0,0-.45.71c.07.26.28.23.5.2a2.56,2.56,0,0,1,.61.05,1.93,1.93,0,0,0,.08-.33c0-.17,0-.34,0-.64A3.88,3.88,0,0,0,79.39,115.91Z"/><path class="cls-3" d="M97.61,98.35a.76.76,0,0,0-.89.13v.75A.89.89,0,0,0,98,98.7C97.84,98.58,97.75,98.41,97.61,98.35Z"/><path class="cls-3" d="M84,101.58a.34.34,0,0,0,.17.23.79.79,0,0,0,1.06-.68c0-.18-.2-.3-.48-.3C84.18,100.83,83.91,101.09,84,101.58Z"/><path class="cls-3" d="M43.33,106.46a1.9,1.9,0,0,0,.57.4c.29.11.61-.19.6-.62,0-.06-.11-.24-.23-.32a.81.81,0,0,0-.94.16A.39.39,0,0,0,43.33,106.46Z"/><path class="cls-3" d="M77,97.91c-.24.25-.44.44-.61.65a.3.3,0,0,0,.23.46c.27,0,.53,0,.79,0C77.57,98.43,77.57,98.43,77,97.91Z"/><path class="cls-3" d="M81.67,129.57a.75.75,0,0,0,.46.2.91.91,0,0,0,.5-.29c.12-.14,0-.45-.18-.53a.92.92,0,0,0-1.18.16A3.67,3.67,0,0,0,81.67,129.57Z"/><path class="cls-3" d="M72,72.73c-.12,0-.32.07-.45.16a.53.53,0,0,0-.25.63.52.52,0,0,0,.58.35,2.72,2.72,0,0,0,.42-.07,3.72,3.72,0,0,0,0-.68A.57.57,0,0,0,72,72.73Z"/><path class="cls-3" d="M77.56,119c0-.25-.26-.63-.47-.6a1,1,0,0,0-.51.27,1.44,1.44,0,0,0-.24.48.71.71,0,0,0,1,.27A.59.59,0,0,0,77.56,119Z"/><path class="cls-3" d="M64.79,127a2.48,2.48,0,0,0,0-.63l-.85-.26a4.68,4.68,0,0,0-.17.67c0,.21,0,.43.26.49S64.7,127.28,64.79,127Z"/><path class="cls-3" d="M61.51,123.77c-.29.11-.36.39-.4.67.57.51.8.43,1.25-.41A.8.8,0,0,0,61.51,123.77Z"/><path class="cls-3" d="M35.64,103.82a.85.85,0,0,0,.85.56l.62-.68a1,1,0,0,0-1.33-.14A.82.82,0,0,0,35.64,103.82Z"/><path class="cls-3" d="M88,98.72a.68.68,0,0,0-.69-.35c-.13,0-.28.22-.32.36-.11.33.16.5.37.68a.34.34,0,0,0,.47,0l.37-.28C88.07,98.9,88,98.81,88,98.72Z"/><path class="cls-3" d="M90,100.65c-.39.12-.76.19-.72.66s.38.44.73.55l.57-.6Z"/><path class="cls-3" d="M75,111.5a.48.48,0,0,0-.38-.45c-.24-.07-.39.07-.49.28s-.09.19-.13.29a.45.45,0,0,0,.21.54.44.44,0,0,0,.58,0,1.26,1.26,0,0,0,.23-.36C75,111.64,75,111.57,75,111.5Z"/><path class="cls-3" d="M89.74,110.85c-.21,0-.43.2-.47.47a.58.58,0,0,0,.5.66.56.56,0,0,0,.54-.52A.62.62,0,0,0,89.74,110.85Z"/><path class="cls-3" d="M71.85,82.87c-.24,0-.42.31-.4.64a.55.55,0,0,0,.53.54.54.54,0,0,0,.51-.64A.62.62,0,0,0,71.85,82.87Z"/><path class="cls-3" d="M84,90.85c-.12.31,0,.5.57.83.16-.28.28-.49.39-.7s.06-.15,0-.2-.13-.27-.23-.3A.58.58,0,0,0,84,90.85Z"/><path class="cls-3" d="M46.41,88.11c-.35,0-.47.23-.51.62l.64.61c.31-.27.62-.47.46-.89A.54.54,0,0,0,46.41,88.11Z"/><path class="cls-3" d="M81.86,133.93a.53.53,0,0,0-.21.33v.17l.91-.48C82.41,133.71,82.16,133.7,81.86,133.93Z"/><path class="cls-3" d="M46,78.08a.31.31,0,0,0,0,.52c.29.19.56.44,1,.29a1,1,0,0,0,0-.35A.62.62,0,0,0,46,78.08Z"/><path class="cls-3" d="M61.62,94.22a.85.85,0,0,0,.69-.7c0-.07-.06-.19-.13-.23a.64.64,0,0,0-.77,0,1.15,1.15,0,0,0-.28.62C61.1,94.06,61.43,94.24,61.62,94.22Z"/><path class="cls-3" d="M78.94,86.52l.93-.21c.08-.36,0-.59-.32-.7a.63.63,0,0,0-.75.17A.46.46,0,0,0,78.94,86.52Z"/><path class="cls-3" d="M61.25,78.52c.29.52.56.54.92.08a.42.42,0,0,0,.06-.56.63.63,0,0,0-.72-.2,1.93,1.93,0,0,0-.35.35A1.31,1.31,0,0,0,61.25,78.52Z"/><path class="cls-3" d="M97.74,114.48a4.58,4.58,0,0,0,.45-.49c-.34-.29-.59-.48-.93-.42a.46.46,0,0,0-.31.21.55.55,0,0,0,.13.67A.51.51,0,0,0,97.74,114.48Z"/><path class="cls-3" d="M41,103.37a5.78,5.78,0,0,0,.11.6c.18.52.53.56,1,.1C41.79,103.25,41.67,103.17,41,103.37Z"/><path class="cls-3" d="M43.55,101.57l.8.29c.21-.3.46-.5.24-.8a.76.76,0,0,0-1-.16C43.38,101.05,43.42,101.31,43.55,101.57Z"/><path class="cls-3" d="M41.07,109.34a.37.37,0,0,0,.64-.21c0-.3.16-.69-.12-.88s-.5.23-.73.41c0,0-.07.12-.16.28A5,5,0,0,0,41.07,109.34Z"/><path class="cls-3" d="M38.21,111.72a1,1,0,0,0,.92,0,.43.43,0,0,0,.09-.74,2.31,2.31,0,0,0-.45-.21C38.42,111.06,38.09,111.25,38.21,111.72Z"/><path class="cls-3" d="M49.42,110.87a.86.86,0,0,0-.59,0,.46.46,0,0,0-.23.61.48.48,0,0,0,.59.3,3.81,3.81,0,0,0,.6-.43C49.64,111.17,49.57,110.94,49.42,110.87Z"/><path class="cls-3" d="M43.51,116.26a3.06,3.06,0,0,0,0,.62,4.49,4.49,0,0,0,.8,0,.5.5,0,0,0,.38-.29c0-.11-.09-.3-.2-.42a1,1,0,0,0-.36-.19A.4.4,0,0,0,43.51,116.26Z"/><path class="cls-3" d="M61.84,74c.12-.11.23-.2.32-.3a.49.49,0,0,0,.1-.58.58.58,0,0,0-.6-.32.39.39,0,0,0-.39.4A.82.82,0,0,0,61.84,74Z"/><path class="cls-3" d="M82.39,119.41a.5.5,0,0,0,.25-.62.47.47,0,0,0-.68-.28,5.59,5.59,0,0,0-.59.55C81.87,119.48,82.07,119.54,82.39,119.41Z"/><path class="cls-3" d="M61.73,108.43a.39.39,0,0,0-.64.22,1.13,1.13,0,0,0,0,.41.48.48,0,0,0,.39.42.39.39,0,0,0,.48-.28l.17-.37A3,3,0,0,0,61.73,108.43Z"/><path class="cls-3" d="M87.09,123.74a.55.55,0,0,0-.47.47.62.62,0,0,0,.56.52c.28,0,.59-.28.58-.49A.57.57,0,0,0,87.09,123.74Z"/><path class="cls-3" d="M56,78.39a.47.47,0,0,0,.16.25.7.7,0,0,0,.78,0c.13-.08.19-.26.25-.34a.65.65,0,0,0-.6-.55C56.37,77.79,56,78.16,56,78.39Z"/><path class="cls-3" d="M54.44,126.21A.33.33,0,0,0,54,126c-.38.13-.48.45-.58.8l.6.54A1.08,1.08,0,0,0,54.44,126.21Z"/><path class="cls-3" d="M86.74,108.75a.59.59,0,0,0,0,.4,2.51,2.51,0,0,0,.51.34l.52-.58a3.64,3.64,0,0,0-.32-.4C87.15,108.2,86.8,108.31,86.74,108.75Z"/><path class="cls-3" d="M76.43,88.19a3.2,3.2,0,0,0-.11.68,2.69,2.69,0,0,0,.55,0c.36-.06.49-.21.5-.56s0-.44-.24-.52A.64.64,0,0,0,76.43,88.19Z"/><path class="cls-3" d="M72.23,88a.47.47,0,0,0-.58.07.42.42,0,0,0-.14.56,4.24,4.24,0,0,0,.52.55,2.86,2.86,0,0,0,.44-.65A.44.44,0,0,0,72.23,88Z"/><path class="cls-3" d="M66.27,108.81l.9.47c.16-.21.28-.36.4-.5C66.87,108.09,66.84,108.09,66.27,108.81Z"/><path class="cls-3" d="M78.67,101.62a3.77,3.77,0,0,0,.51,0c.14,0,.27-.06.41-.07s.26,0,.38,0c.14-.44.14-.59,0-.68a.41.41,0,0,0-.48,0c-.17.11-.39.15-.55.27S78.79,101.4,78.67,101.62Z"/><path class="cls-3" d="M72.67,103.87l-.71-.68c-.5.15-.55.47-.45,1C71.92,104.15,72.33,104.38,72.67,103.87Z"/><path class="cls-3" d="M59.54,116.09a.45.45,0,0,0-.55-.17c-.2,0-.31.24-.26.5a1,1,0,0,0,.47.71l.6-.54C59.7,116.4,59.63,116.24,59.54,116.09Z"/><path class="cls-3" d="M84.56,112a.93.93,0,0,0,.65-.64c-.69-.65-.69-.65-1.27.1Z"/><path class="cls-3" d="M66.08,68.19a.42.42,0,0,0,0,.57.46.46,0,0,0,.55.21.82.82,0,0,0,.58-.67,3.66,3.66,0,0,0-.73-.27A.43.43,0,0,0,66.08,68.19Z"/><path class="cls-3" d="M82.17,84a1.41,1.41,0,0,0,.26-.28,3.52,3.52,0,0,0,.18-.45c-.56-.39-.58-.4-.74-.34a.71.71,0,0,0-.33.6A.59.59,0,0,0,82.17,84Z"/><path class="cls-3" d="M74.84,126.18a2,2,0,0,0-.26-.18l-.74.54c.32.57.68.67,1.15.47A.79.79,0,0,0,74.84,126.18Z"/><path class="cls-3" d="M95.26,111.05a.6.6,0,0,0-.67-.12.45.45,0,0,0-.2.54,4.21,4.21,0,0,0,.36.66,5,5,0,0,0,.55-.51A.43.43,0,0,0,95.26,111.05Z"/><path class="cls-3" d="M77.37,114.39c0-.21,0-.47-.05-.8a1.93,1.93,0,0,0-.54,0c-.29.11-.35.39-.41.67C76.8,114.63,77.12,114.69,77.37,114.39Z"/><path class="cls-3" d="M92.63,109.09a1.75,1.75,0,0,0-.09-.6.33.33,0,0,0-.52-.08,3.08,3.08,0,0,0-.33.57.9.9,0,0,0,.15.23,1.15,1.15,0,0,0,.27.14C92.4,109.47,92.62,109.37,92.63,109.09Z"/><path class="cls-3" d="M49.32,116a.59.59,0,0,0-.6,0c-.22.12-.45.23-.32.6l.83.29C49.65,116.48,49.66,116.17,49.32,116Z"/><path class="cls-3" d="M92.83,113.84c-.14-.15-.3-.27-.54-.49a3.29,3.29,0,0,0-.28.46c-.13.33-.06.62.15.73a.56.56,0,0,0,.65-.18C93,114.18,93,114.05,92.83,113.84Z"/><path class="cls-3" d="M69.89,126.6l-.71-.48c-.14.19-.35.35-.35.5,0,.42.31.58.66.62C69.72,127.08,69.94,126.94,69.89,126.6Z"/><path class="cls-3" d="M67.48,113.7c-.24-.4-.56-.45-.79-.11a4.45,4.45,0,0,0-.31.66.81.81,0,0,0,1.16-.31C67.51,113.83,67.52,113.75,67.48,113.7Z"/><path class="cls-3" d="M51.6,109.46c.63-.54.63-.54,0-1.12-.35.11-.65.21-.73.57A1.07,1.07,0,0,0,51.6,109.46Z"/><path class="cls-3" d="M48.66,75.18l-.53.64c.62.38.62.38,1.21.27C49.44,75.56,49.11,75.37,48.66,75.18Z"/><path class="cls-3" d="M41.63,82.83c-.33.08-.41.37-.47.63s.08.31.15.45.12.07.18.1a.58.58,0,0,0,.19,0,.81.81,0,0,0,.4-.68C42.1,83.09,41.79,82.78,41.63,82.83Z"/><path class="cls-3" d="M42,88.68a.7.7,0,0,0-.56-.67.53.53,0,0,0-.47.48.54.54,0,0,0,.53.64A.5.5,0,0,0,42,88.68Z"/><path class="cls-3" d="M64.41,90.54c-.24-.12-.4,0-.52.21a.36.36,0,0,0,.14.52c.38.29.7.16,1-.15C64.94,90.71,64.65,90.65,64.41,90.54Z"/><path class="cls-3" d="M90,90.72a.41.41,0,0,0-.52-.24.5.5,0,0,0-.41.43.42.42,0,0,0,.29.5,3.54,3.54,0,0,0,.74,0A3.14,3.14,0,0,0,90,90.72Z"/><path class="cls-3" d="M51.57,88.93a.51.51,0,0,0,.56-.48.62.62,0,0,0-.58-.49.6.6,0,0,0-.55.51A.48.48,0,0,0,51.57,88.93Z"/><path class="cls-3" d="M84.37,75.78c.1.21.23.4.39.67.17-.13.35-.21.4-.33.15-.46-.13-.76-.4-1.06C84.25,75.41,84.22,75.45,84.37,75.78Z"/><path class="cls-3" d="M68.83,80.94c.15.38.43.4.89.28,0-.2,0-.37,0-.53a.46.46,0,0,0-.08-.19.48.48,0,0,0-.64-.16C68.76,80.46,68.72,80.67,68.83,80.94Z"/><path class="cls-3" d="M38.87,81.63a.91.91,0,0,0,.28-1c0-.12-.19-.28-.28-.27a.57.57,0,0,0-.42.23C38.24,81,38.41,81.37,38.87,81.63Z"/><path class="cls-3" d="M96.7,119.54c.09-.16.17-.32.25-.48A.54.54,0,0,0,96.7,119.54Z"/><path class="cls-3" d="M89.72,95.61a.52.52,0,0,0-.35.18.66.66,0,0,0,0,.7.48.48,0,0,0,.62.24c.16-.61.18-.67.07-.89A.47.47,0,0,0,89.72,95.61Z"/><path class="cls-3" d="M90.31,116.55a.45.45,0,0,0-.41-.52c-.09,0-.26,0-.28.09a5.28,5.28,0,0,0-.21.78c0,.06.13.17.22.2C90,117.21,90.3,117,90.31,116.55Z"/><path class="cls-3" d="M33.54,90.48c-.27.58-.23.89.09,1a1.49,1.49,0,0,0,.69-.08c.09,0,.13-.2.23-.36Z"/><path class="cls-3" d="M69.16,122c.32,0,.5-.18.72-.43a.84.84,0,0,0-.07-.26c-.24-.39-.55-.43-.79-.1a1.62,1.62,0,0,0-.19.37A.33.33,0,0,0,69.16,122Z"/><path class="cls-3" d="M35.83,93.51a.52.52,0,0,0,.55.5.49.49,0,0,0,.48-.44.52.52,0,0,0-.48-.57A.57.57,0,0,0,35.83,93.51Z"/><path class="cls-3" d="M94.44,101.44c.34.25.67.28.87.12s.07-.44-.29-.78a1.42,1.42,0,0,0-.3-.13,2.91,2.91,0,0,0-.33.26,1,1,0,0,0-.14.28A1.35,1.35,0,0,0,94.44,101.44Z"/><path class="cls-3" d="M53.73,132.35a.4.4,0,0,0,.54-.15c.08-.15.15-.31.25-.5-.1-.11-.17-.25-.28-.29a.59.59,0,0,0-.77.33A.49.49,0,0,0,53.73,132.35Z"/><path class="cls-3" d="M36.57,83.78a.34.34,0,0,0,.15-.58,1.25,1.25,0,0,0-.23-.23l-.54.79a.6.6,0,0,0,.11.06A1.25,1.25,0,0,0,36.57,83.78Z"/><path class="cls-3" d="M74.39,101.62a1,1,0,0,0,.61,0c.07,0,.15-.27.11-.33-.28-.44-.55-.48-1.34-.15C74,101.33,74.18,101.54,74.39,101.62Z"/><path class="cls-3" d="M92.81,83.65c.11-.12,0-.36-.27-.46A1.56,1.56,0,0,0,92,83a.39.39,0,0,0-.3.22.38.38,0,0,0,.08.36,4,4,0,0,0,.62.3A2.33,2.33,0,0,0,92.81,83.65Z"/><path class="cls-3" d="M90,106.69a.36.36,0,0,0,.21-.57c-.07-.08-.13-.18-.22-.22a1.06,1.06,0,0,0-.47-.14c-.21,0-.24.23-.23.41s0,.28,0,.53A3,3,0,0,0,90,106.69Z"/><path class="cls-3" d="M39.18,106.12c-.12-.22-.34-.22-.55-.17s-.28.29-.25.51a.43.43,0,0,0,.66.39c.12-.06.23-.15.38-.24C39.33,106.43,39.27,106.27,39.18,106.12Z"/><path class="cls-3" d="M67.3,93.61a.55.55,0,0,0,0-.38.44.44,0,0,0-.53-.21.52.52,0,0,0-.39.44.36.36,0,0,0,.26.4l.41.15A2.5,2.5,0,0,0,67.3,93.61Z"/><path class="cls-3" d="M81.65,78a.47.47,0,0,0,.27.6c.35.19.51,0,.74-.41a6.09,6.09,0,0,0-.62-.44C81.9,77.67,81.68,77.82,81.65,78Z"/><path class="cls-3" d="M31.58,93.32c-.07.23-.14.46-.2.7l.34-.06A.65.65,0,0,0,31.58,93.32Z"/><path class="cls-3" d="M87.55,93.2c-.17-.1-.37-.25-.58-.1a2.37,2.37,0,0,0-.26.33l.65.85C87.82,93.54,87.84,93.38,87.55,93.2Z"/><path class="cls-3" d="M58.64,80.83a.45.45,0,0,0,.36.45,1.16,1.16,0,0,0,.32,0,.48.48,0,0,0,.44-.5c0-.2-.18-.32-.51-.32a.9.9,0,0,0-.27,0C58.8,80.53,58.65,80.61,58.64,80.83Z"/><path class="cls-3" d="M74.16,81.25a5,5,0,0,0,.89,0c-.35-.77-.53-.91-.91-.73a.52.52,0,0,0-.28.37A.51.51,0,0,0,74.16,81.25Z"/><path class="cls-3" d="M41.31,99.39c.08,0,.26,0,.35-.09s.07-.19.11-.31a1.23,1.23,0,0,0-.14-.47.66.66,0,0,0-.45-.19c-.21,0-.25.19-.27.38A.74.74,0,0,0,41.31,99.39Z"/><path class="cls-3" d="M47.1,83.13a1.3,1.3,0,0,0-.34-.36.43.43,0,0,0-.6.23.49.49,0,0,0,.16.54,1.47,1.47,0,0,0,.33.1,2.08,2.08,0,0,0,.26,0A.29.29,0,0,0,47.1,83.13Z"/><path class="cls-3" d="M82.65,103.68c-.06-.26-.2-.33-.56-.3s-.4.08-.45.33.06.46.28.47a6.13,6.13,0,0,0,.72,0A1.81,1.81,0,0,0,82.65,103.68Z"/><path class="cls-3" d="M64.61,86.14a3.9,3.9,0,0,0,.29-.4l-.37-.23-.19-.1c-.3-.1-.51,0-.51.32a1.31,1.31,0,0,0,.13.59C64,86.45,64.37,86.36,64.61,86.14Z"/><path class="cls-3" d="M59.16,96.54a.69.69,0,0,0,.46-.15c.16-.11.14-.29,0-.45a4.23,4.23,0,0,0-.23-.37c-.37.11-.74.18-.9.65A2.88,2.88,0,0,0,59.16,96.54Z"/><path class="cls-3" d="M64.19,95.65a.24.24,0,0,0-.35.11c0,.1,0,.21,0,.28a2.18,2.18,0,0,1,0,.24c0,.26.24.34.44.4a.32.32,0,0,0,.27-.09.44.44,0,0,0,0-.58A1.81,1.81,0,0,0,64.19,95.65Z"/><path class="cls-3" d="M58.6,91.19c.09.26.35.3.61.29l.33-.07a3.13,3.13,0,0,0,0-.64.35.35,0,0,0-.58-.17C58.74,90.75,58.49,90.9,58.6,91.19Z"/><path class="cls-3" d="M34,111a.36.36,0,0,0-.61.08.94.94,0,0,0-.08.41,1.42,1.42,0,0,0,.09.3,3.8,3.8,0,0,0,.43,0,5.19,5.19,0,0,0,.56-.08A8.46,8.46,0,0,0,34,111Z"/><path class="cls-3" d="M49.76,95.94a.64.64,0,0,0-.13-.15l-.34-.07c-.1,0-.24,0-.37.09a.51.51,0,0,0-.23.53c.08.25.41.28.81.08S49.86,96.11,49.76,95.94Z"/><path class="cls-3" d="M78.94,96.35a.36.36,0,0,0,.11.27.49.49,0,0,0,.84-.21,2.39,2.39,0,0,0,0-.59C79.29,95.85,79,96,78.94,96.35Z"/><path class="cls-3" d="M66.77,89.17c.13-.11.3-.16.33-.27a1.14,1.14,0,0,0,.06-.6.53.53,0,0,0-.35-.32.5.5,0,0,0-.38.28,1,1,0,0,0,0,.6C66.48,89,66.63,89.05,66.77,89.17Z"/><path class="cls-3" d="M54.61,121.67a.82.82,0,0,0-.28-.5.37.37,0,0,0-.65.19,2.48,2.48,0,0,0,0,.57,3.06,3.06,0,0,0,.41.08C54.32,122,54.59,122,54.61,121.67Z"/><path class="cls-3" d="M38.5,121.27c-.14,0-.23.22-.34.34a2.21,2.21,0,0,0,.2.3.5.5,0,0,0,.15.14c.27.21.59.14.65-.17a.76.76,0,0,0-.09-.57A.65.65,0,0,0,38.5,121.27Z"/><path class="cls-3" d="M63.85,116.84c.12,0,.26.07.31.09.37,0,.64-.26.61-.51s-.29-.35-.58-.31a.89.89,0,0,0-.37.14A.34.34,0,0,0,63.85,116.84Z"/><path class="cls-3" d="M87.34,118.58a.46.46,0,0,0-.38,0,.6.6,0,0,0-.19.75c.15.2.37.16.58.07l.48-.29A3.18,3.18,0,0,0,87.34,118.58Z"/><path class="cls-3" d="M46.63,129.6c.13,0,.27-.16.38-.22a.76.76,0,0,0-.87-.72.33.33,0,0,0-.21.42A.75.75,0,0,0,46.63,129.6Z"/><path class="cls-3" d="M59.4,132.16a.57.57,0,0,0,.31-.35c0-.08-.09-.27-.19-.33-.34-.21-.53-.15-1,.33C58.81,132,59.06,132.26,59.4,132.16Z"/><path class="cls-3" d="M54.65,106.08a3,3,0,0,0-.6-.15c-.35,0-.52.3-.33.56a1.67,1.67,0,0,0,.38.37c.06,0,.18,0,.31,0C54.48,106.65,54.55,106.42,54.65,106.08Z"/><path class="cls-3" d="M33.15,95.83c0,.19-.1.47,0,.59a.67.67,0,0,0,1,.22c-.18-.3-.34-.6-.53-.88A.24.24,0,0,0,33.15,95.83Z"/><path class="cls-3" d="M62.16,103.45a.7.7,0,0,0-.47.09.43.43,0,0,0-.16.55c.07.15.18.29.26.43a.67.67,0,0,0,.52-.72C62.3,103.67,62.23,103.46,62.16,103.45Z"/><path class="cls-3" d="M51,129.27a.59.59,0,0,0,.52.55c.21,0,.39-.22.41-.52s-.1-.44-.32-.47A.53.53,0,0,0,51,129.27Z"/><path class="cls-3" d="M52.09,98.81c.08-.14-.16-.48-.43-.46s-.36.28-.55.47-.11.23-.07.28a.58.58,0,0,0,.32.21C51.73,99.36,51.92,99.08,52.09,98.81Z"/><path class="cls-3" d="M67.33,124c-.14-.23-.37-.26-.61-.06a4.93,4.93,0,0,0-.39.44c.47.44.48.44.84.22A.42.42,0,0,0,67.33,124Z"/><path class="cls-3" d="M61.61,118.74c-.25.22-.4.65-.26.81a.37.37,0,0,0,.27.11c.31,0,.48-.23.63-.46,0,0,0-.13,0-.2a1,1,0,0,0-.11-.17A.4.4,0,0,0,61.61,118.74Z"/><path class="cls-3" d="M94.67,122a.5.5,0,0,0,.64-.18s0-.07.08-.16a3.32,3.32,0,0,0-.34-.45.45.45,0,0,0-.37-.1.78.78,0,0,0-.3.39C94.31,121.69,94.47,121.86,94.67,122Z"/><path class="cls-3" d="M81.48,108.91a.65.65,0,0,0,.33.34.56.56,0,0,0,.81-.32.77.77,0,0,0-.76-.43C81.66,108.52,81.42,108.76,81.48,108.91Z"/><path class="cls-3" d="M43.48,75.52a.34.34,0,0,0,.1.63.74.74,0,0,0,.49,0,2.92,2.92,0,0,0,.5-.53A.92.92,0,0,0,43.48,75.52Z"/><path class="cls-3" d="M59,85.66a.49.49,0,0,0-.09.65.56.56,0,0,0,.78.18,3.71,3.71,0,0,0,0-.38.8.8,0,0,0-.09-.3A.47.47,0,0,0,59,85.66Z"/><path class="cls-3" d="M38.39,86.11a.66.66,0,0,0,.24.2.9.9,0,0,0,.4,0,.45.45,0,0,0,.36-.53c0-.21-.2-.26-.39-.27s-.56,0-.73.29A1.51,1.51,0,0,0,38.39,86.11Z"/><path class="cls-3" d="M49,80.51a.38.38,0,0,0-.5.26c-.06.13-.11.26-.17.41a3.87,3.87,0,0,0,.48.26.4.4,0,0,0,.51-.24A.53.53,0,0,0,49,80.51Z"/><path class="cls-3" d="M64.29,69.87c-.42.51-.42.74,0,.94a.65.65,0,0,0,.79-.06C65,70.36,64.61,70.17,64.29,69.87Z"/><path class="cls-3" d="M72,68.74l.48-.29-.91-.16A3.14,3.14,0,0,0,72,68.74Z"/><path class="cls-3" d="M77,109.46c.25,0,.4-.33.36-.67a.38.38,0,0,0-.46-.32c-.27,0-.4.22-.36.53S76.8,109.5,77,109.46Z"/><path class="cls-3" d="M86.85,78c-.11.19-.22.39-.33.61.29.15.49.5.83.24a.55.55,0,0,0,.17-.44C87.46,78.08,87.16,78,86.85,78Z"/><path class="cls-3" d="M77.34,78.72a.27.27,0,0,0,.21-.18.6.6,0,0,0-.58-.69c-.22,0-.44.23-.4.41a.77.77,0,0,0,.26.41A.87.87,0,0,0,77.34,78.72Z"/><path class="cls-3" d="M86.79,129c.21.55.38.71.63.62a.51.51,0,0,0,.25-.78C87.52,128.62,87.31,128.65,86.79,129Z"/><path class="cls-3" d="M89.31,127.08a.76.76,0,0,0,.75-.61c0-.06-.06-.19-.13-.23s-.3-.12-.37-.06a2.33,2.33,0,0,0-.47.52A.26.26,0,0,0,89.31,127.08Z"/><path class="cls-3" d="M38.63,117.19l.62-.64c-.59-.58-.65-.57-1.15.13Z"/><path class="cls-3" d="M69.05,136.47a.62.62,0,0,0,.09.9.37.37,0,0,0,.35,0,1.17,1.17,0,0,0,.23-.46c.07-.24-.23-.55-.5-.52A.71.71,0,0,0,69.05,136.47Z"/><path class="cls-3" d="M85.47,131.74c-.83-.21-.91-.16-1.22.57C84.82,132.57,85.15,132.3,85.47,131.74Z"/><path class="cls-3" d="M61.39,134c0,.27,0,.54,0,.89.54,0,.62-.11.66-.4a.58.58,0,0,0-.31-.7C61.65,133.71,61.39,133.83,61.39,134Z"/><path class="cls-3" d="M66.77,134.06c-.36.11-.65.29-.58.74a.62.62,0,0,0,.69.1.48.48,0,0,0,.28-.6A.3.3,0,0,0,66.77,134.06Z"/><path class="cls-3" d="M35.87,113.57a.72.72,0,0,0,0,.41c0,.12.1.32.18.33a.59.59,0,0,0,.47-.09.5.5,0,0,0,.13-.45c0-.17-.24-.3-.4-.48C36.06,113.41,35.92,113.47,35.87,113.57Z"/><path class="cls-3" d="M63.88,75.54c-.14.28,0,.46.21.64s.32.28.54.14a.66.66,0,0,0,.19-.22.72.72,0,0,0-.77-.67A.26.26,0,0,0,63.88,75.54Z"/><path class="cls-3" d="M41.91,114c0-.26-.27-.45-.62-.43s-.36.15-.37.41a.34.34,0,0,0,.36.41C41.64,114.4,41.91,114.23,41.91,114Z"/><path class="cls-3" d="M36.12,98.45a.56.56,0,0,0,.46.86c.06,0,.18,0,.22-.12a.59.59,0,0,0-.32-.86A.43.43,0,0,0,36.12,98.45Z"/><path class="cls-3" d="M38.65,101.78a.39.39,0,0,0,.36,0,.38.38,0,0,0,.13-.35,4.53,4.53,0,0,0-.4-.63l-.63.5A5.26,5.26,0,0,0,38.65,101.78Z"/><path class="cls-3" d="M43.53,86.59a3.75,3.75,0,0,0,.61-.23c.18-.09.17-.28.11-.45a.47.47,0,0,0-.48-.32c-.26,0-.32.22-.31.44S43.5,86.36,43.53,86.59Z"/><path class="cls-3" d="M49.32,101.12a.42.42,0,0,0,0-.29c0-.08-.17-.19-.21-.17a2,2,0,0,0-.71.35c-.1.1,0,.37,0,.75l.78-.51C49.23,101.21,49.3,101.17,49.32,101.12Z"/><path class="cls-3" d="M43.46,91.27c0,.19,0,.35.26.39a.35.35,0,0,0,.4-.24,1.37,1.37,0,0,0,.15-.38.38.38,0,0,0-.18-.44.48.48,0,0,0-.54.18,1.26,1.26,0,0,0-.09.3Z"/><path class="cls-3" d="M74.21,91.22a.82.82,0,0,0,.08.4,1.92,1.92,0,0,0,.47.29c0-.3.07-.5.07-.7s0-.52-.26-.62S74.19,90.8,74.21,91.22Z"/><path class="cls-3" d="M94.68,90.67a.51.51,0,0,0-.42.49.61.61,0,0,0,.57.49.46.46,0,0,0,.34-.54A.5.5,0,0,0,94.68,90.67Z"/><path class="cls-3" d="M77.56,103.8c-.12-.36-.38-.48-.86-.34a3.72,3.72,0,0,0,.12.66.37.37,0,0,0,.51.21A.44.44,0,0,0,77.56,103.8Z"/><path class="cls-3" d="M72.36,119.17a5.52,5.52,0,0,0-.45-.48.36.36,0,0,0-.3,0c-.21.14-.16.37-.14.58a.12.12,0,0,0,0,.09c.14.09.32.27.41.23S72.2,119.35,72.36,119.17Z"/><path class="cls-3" d="M41.46,128.83h-.05l.51.48A.49.49,0,0,0,41.46,128.83Z"/><path class="cls-3" d="M66.92,72.91a7.65,7.65,0,0,0-.69.6c.31.15.48.32.64.31a.68.68,0,0,0,.49-.59C67.36,73,67.07,72.82,66.92,72.91Z"/><path class="cls-3" d="M97.82,103.36c-.33.18-.59.28-.82.43a.39.39,0,0,0-.1.36.42.42,0,0,0,.28.24C97.64,104.42,97.91,104.05,97.82,103.36Z"/><path class="cls-3" d="M49.51,121.75a.56.56,0,0,0,0-.46.38.38,0,0,0-.54-.13,2.51,2.51,0,0,0-.41.48c.19.12.33.22.47.29A.35.35,0,0,0,49.51,121.75Z"/><path class="cls-3" d="M74.1,131.49a.41.41,0,0,0-.08.29.45.45,0,0,0,.43.39,1.22,1.22,0,0,0,.47-.17s0-.12.08-.19,0-.07,0-.1A.59.59,0,0,0,74.1,131.49Z"/><path class="cls-3" d="M54.48,91.43c0-.38,0-.64-.07-1-.22.08-.44.1-.49.2a3.62,3.62,0,0,0-.24.8Z"/><path class="cls-3" d="M97.17,88.14a.39.39,0,0,0,.07.75.81.81,0,0,0,.27,0c.06,0,.22-.07.27-.14-.1-.23-.2-.45-.31-.68A.63.63,0,0,0,97.17,88.14Z"/><path class="cls-3" d="M94.82,96.48c.29.16.45-.07.62-.24a.61.61,0,0,0,.08-.21.88.88,0,0,0-.18-.21c-.15-.08-.31-.13-.53-.22C94.56,96.13,94.57,96.34,94.82,96.48Z"/><path class="cls-3" d="M64.61,111.78a1.61,1.61,0,0,0,0-.47c0-.12-.11-.31-.19-.33a.61.61,0,0,0-.48.1.82.82,0,0,0-.2.54c0,.21.25.21.43.21A2,2,0,0,0,64.61,111.78Z"/><path class="cls-3" d="M66.72,77.84c-.22,0-.37.23-.35.55s.14.35.41.36.41-.11.41-.34S67,77.84,66.72,77.84Z"/><path class="cls-3" d="M97.66,109.21a.54.54,0,0,0,.25-.4.36.36,0,0,0-.19-.3.61.61,0,0,0-.47.06,3.21,3.21,0,0,0-.38.69A3,3,0,0,0,97.66,109.21Z"/><path class="cls-3" d="M77,83.82a.52.52,0,0,0,.6-.31c0-.2-.19-.44-.47-.48s-.47.06-.51.25A.47.47,0,0,0,77,83.82Z"/><path class="cls-3" d="M68.94,75.9a.74.74,0,0,0,1-.18l-.58-.61a5.45,5.45,0,0,0-.5.53S68.87,75.88,68.94,75.9Z"/><path class="cls-3" d="M66.77,103.4c-.08.09-.27.21-.34.38s.26.47.69.4a.38.38,0,0,0,.26-.26C67.42,103.62,67.16,103.38,66.77,103.4Z"/><path class="cls-3" d="M79.21,131.91a.45.45,0,0,0,.42.49c.25,0,.51-.24.46-.43a.71.71,0,0,0-.7-.44A1.11,1.11,0,0,0,79.21,131.91Z"/><path class="cls-3" d="M34.23,101.41a.6.6,0,0,0,0-.47c0-.06-.26-.08-.36,0a.76.76,0,0,0-.5.66C33.67,101.68,34,101.77,34.23,101.41Z"/><path class="cls-3" d="M99.56,111.49a.3.3,0,0,0,.15.26c.07-.27.12-.54.18-.81A.68.68,0,0,0,99.56,111.49Z"/><path class="cls-3" d="M79.87,121.12a.33.33,0,0,0-.26-.12,2.75,2.75,0,0,0-.47.22l.52.82C80.07,121.56,80.11,121.38,79.87,121.12Z"/><path class="cls-3" d="M58.8,101.21c0,.08.13.29.24.38a.34.34,0,0,0,.48-.08v-.77C59.08,100.64,58.92,100.93,58.8,101.21Z"/><path class="cls-3" d="M79.47,75.39c-.3,0-.54.13-.51.57l1.13-.1A.54.54,0,0,0,79.47,75.39Z"/><path class="cls-3" d="M100.39,101.2a.53.53,0,0,0,0-.46c0-.07-.26-.1-.36,0a.81.81,0,0,0-.52.64C99.84,101.5,100.16,101.55,100.39,101.2Z"/><path class="cls-3" d="M72.38,113.78a.4.4,0,0,0-.68,0,2.16,2.16,0,0,0-.2.52.71.71,0,0,0,.83,0A.31.31,0,0,0,72.38,113.78Z"/><path class="cls-3" d="M92.29,124.62a1.52,1.52,0,0,0,.42-.27c.05,0,0-.25-.11-.34s-.3-.3-.53-.16-.33.39-.22.52A1.64,1.64,0,0,0,92.29,124.62Z"/><path class="cls-3" d="M57.08,93.39a.56.56,0,0,0-.75-.1.3.3,0,0,0-.12.25c0,.3.32.32.52.44h.16c.07-.06.21-.13.25-.23A.43.43,0,0,0,57.08,93.39Z"/><path class="cls-3" d="M63.75,81a.32.32,0,0,0,.15.24,1,1,0,0,0,.36.07,1.09,1.09,0,0,0,.34,0c.1-.06.23-.18.23-.27a.39.39,0,0,0-.22-.29,2.36,2.36,0,0,0-.7,0C63.84,80.78,63.75,80.92,63.75,81Z"/><path class="cls-3" d="M54.27,80.32a.44.44,0,0,0-.39.53c0,.17.22.3.41.53a2.19,2.19,0,0,0,.37-.55A.43.43,0,0,0,54.27,80.32Z"/><path class="cls-3" d="M94.67,116.73c.09,0,.21.11.27.08a.33.33,0,0,0,.24-.4c0-.23-.12-.42-.35-.45a.51.51,0,0,0-.35.17c-.19.21,0,.37.12.53A.16.16,0,0,0,94.67,116.73Z"/><path class="cls-3" d="M51.61,78.74c.22,0,.31-.13.31-.33s-.12-.48-.41-.47-.43.15-.4.36A.51.51,0,0,0,51.61,78.74Z"/><path class="cls-3" d="M54,70.37a2,2,0,0,0-.21.35,1.19,1.19,0,0,0-.07.31c.36.13.67.19.92-.17A.64.64,0,0,0,54,70.37Z"/><path class="cls-3" d="M62.31,129.06c0-.28-.12-.45-.33-.42a.58.58,0,0,0-.53.4c0,.23.18.4.49.39S62.31,129.33,62.31,129.06Z"/><path class="cls-3" d="M81.52,93.78a3.35,3.35,0,0,0,.43.41c.35-.43.37-.57.14-.82a.31.31,0,0,0-.46,0C81.49,93.45,81.38,93.61,81.52,93.78Z"/><path class="cls-3" d="M67.12,119.39a.48.48,0,0,0-.3-.7.31.31,0,0,0-.42.19c-.13.32,0,.56.35.58A1.11,1.11,0,0,0,67.12,119.39Z"/><path class="cls-3" d="M71.49,93.47c-.08.28.15.53.49.53.1,0,.21-.1.28-.14,0-.4-.19-.66-.49-.63A.42.42,0,0,0,71.49,93.47Z"/><path class="cls-3" d="M69.47,100.85c-.25,0-.57.24-.5.42s.25.28.44.48c.15-.18.29-.28.32-.41S69.65,100.86,69.47,100.85Z"/><path class="cls-3" d="M82.51,99c.07-.1.14-.28.09-.36a2.73,2.73,0,0,0-.45-.48c-.13.18-.27.31-.28.45a.69.69,0,0,0,.2.43A.28.28,0,0,0,82.51,99Z"/><path class="cls-3" d="M66.38,83.31c0,.24.21.55.42.48s.29-.24.5-.42c-.19-.15-.3-.3-.44-.34A.38.38,0,0,0,66.38,83.31Z"/><path class="cls-3" d="M56.71,134.86c.31-.14.49-.28.46-.63l-.59-.28C56.23,134.34,56.52,134.57,56.71,134.86Z"/><path class="cls-3" d="M64,121.26a.36.36,0,0,0-.15.25.35.35,0,0,0,.14.24.7.7,0,0,0,.27.06h.14c.18,0,.39-.09.35-.28s-.21-.25-.35-.31A.63.63,0,0,0,64,121.26Z"/><path class="cls-3" d="M74.14,71a.71.71,0,0,0,.82-.3.73.73,0,0,0-.9-.13.32.32,0,0,0-.12.26A.27.27,0,0,0,74.14,71Z"/><path class="cls-3" d="M46.81,119.23c.06,0,.12-.13.23-.24a5.14,5.14,0,0,0-.95-.27c-.27,0-.33.19-.21.45C46.18,119.19,46.5,119.23,46.81,119.23Z"/><path class="cls-3" d="M61.58,68.51c.05.12.25.17.46.3,0-.29.05-.49.06-.69a.29.29,0,0,0-.05-.19l-.51.06A1.28,1.28,0,0,0,61.58,68.51Z"/><path class="cls-3" d="M72.4,124.06c0-.11-.15-.21-.25-.34a2.5,2.5,0,0,0-.45.31.45.45,0,0,0-.08.36.53.53,0,0,0,.36.16A.47.47,0,0,0,72.4,124.06Z"/><path class="cls-3" d="M66.86,128.84a.38.38,0,0,0-.48.28c0,.24.21.54.42.47s.29-.23.5-.41C67.11,129,67,128.88,66.86,128.84Z"/><path class="cls-3" d="M47,124a.6.6,0,0,0-.08-.29s-.1-.07-.16-.1a.6.6,0,0,0-.2,0,.54.54,0,0,0-.06.75.31.31,0,0,0,.25.11C47,124.39,47.06,124.17,47,124Z"/><path class="cls-3" d="M44.07,111.6a.41.41,0,0,0,.39-.41.45.45,0,0,0-.55-.35c-.18,0-.28.25-.23.52S43.88,111.62,44.07,111.6Z"/><path class="cls-3" d="M53.46,111.26c-.07.22.13.55.36.52s.31-.2.54-.36c-.17-.17-.26-.33-.39-.38A.37.37,0,0,0,53.46,111.26Z"/><path class="cls-3" d="M58.74,111.56a.3.3,0,0,0,.38.26c.24,0,.42-.23.39-.41a.45.45,0,0,0-.54-.36C58.78,111.1,58.69,111.3,58.74,111.56Z"/><path class="cls-3" d="M84.68,116c-.24,0-.4.18-.45.64.55.14.75.1.77-.15A.55.55,0,0,0,84.68,116Z"/><path class="cls-3" d="M36.32,108.33a.66.66,0,0,0-.41.25c-.11.14,0,.41.28.46a1.31,1.31,0,0,0,.41-.06C36.7,108.67,36.54,108.33,36.32,108.33Z"/><path class="cls-3" d="M41.45,123.86a2.66,2.66,0,0,0-.36.59c.64.07.79,0,.84-.29a.42.42,0,0,0-.12-.35A.36.36,0,0,0,41.45,123.86Z"/><path class="cls-3" d="M46.61,73.63a.43.43,0,0,0,.2-.3.45.45,0,0,0-.05-.18l-.68.44.22.08C46.41,73.66,46.54,73.68,46.61,73.63Z"/><path class="cls-3" d="M33.54,116.8a.43.43,0,0,0,.28.25.51.51,0,0,0,.5-.49c-.06,0-.14-.19-.24-.21C33.8,116.29,33.49,116.55,33.54,116.8Z"/><path class="cls-3" d="M92.4,119.17a.39.39,0,0,0,.16-.33c0-.08-.2-.17-.31-.18-.3,0-.53.1-.64.59A5.09,5.09,0,0,0,92.4,119.17Z"/><path class="cls-3" d="M69.23,91.46c.11,0,.21-.12.28-.15,0-.37-.18-.64-.39-.58a.65.65,0,0,0-.36.31C68.68,91.24,69,91.48,69.23,91.46Z"/><path class="cls-3" d="M31.76,98.88a.4.4,0,0,0-.33-.44c-.29-.09-.44.07-.57.35a2.23,2.23,0,0,0,.41.27C31.51,99.16,31.74,99.07,31.76,98.88Z"/><path class="cls-3" d="M56.76,98.31a.3.3,0,0,0-.35.28.45.45,0,0,0,.31.47c.16.06.36-.12.41-.36A.36.36,0,0,0,56.76,98.31Z"/><path class="cls-3" d="M43.51,96.41a.6.6,0,0,0,.37.31c.22.06.44-.22.39-.48a.83.83,0,0,0-.2-.27C43.74,96,43.44,96.23,43.51,96.41Z"/><path class="cls-3" d="M44.38,81.06a.3.3,0,0,0-.1-.25,5,5,0,0,0-.59-.21.89.89,0,0,0-.19.2.2.2,0,0,0,0,.18,3.48,3.48,0,0,0,.63.26S44.36,81.14,44.38,81.06Z"/><path class="cls-3" d="M87.26,104.23c.11-.1.25-.15.26-.22a1.52,1.52,0,0,0,0-.52.35.35,0,0,0-.23-.18.31.31,0,0,0-.24.15A1,1,0,0,0,87,104C87,104.07,87.15,104.13,87.26,104.23Z"/><path class="cls-3" d="M56,103.87c.43.08.43.08,1-.28C56.32,103.3,56.31,103.31,56,103.87Z"/><path class="cls-3" d="M36.76,88.56c.09-.21,0-.3-.46-.34V89l.16,0A4.3,4.3,0,0,0,36.76,88.56Z"/><path class="cls-3" d="M38.76,96c-.14.06-.34.25-.32.34s.22.28.39.49a2,2,0,0,0,.32-.47C39.2,96.2,38.93,96,38.76,96Z"/><path class="cls-3" d="M41.58,118.71c-.18,0-.42.2-.41.39s.29.4.45.32.23-.21.4-.37A2.09,2.09,0,0,0,41.58,118.71Z"/><path class="cls-3" d="M85,126.93a.78.78,0,0,0,0-.21c0-.12-.08-.31-.16-.33a.42.42,0,0,0-.35.15,1.58,1.58,0,0,0-.19.44C84.59,127.15,84.81,127.18,85,126.93Z"/><path class="cls-3" d="M92.15,103.5a.31.31,0,0,0-.11.26.41.41,0,0,0,.39.4,1.68,1.68,0,0,0,.43-.17,4.71,4.71,0,0,0-.44-.49A.29.29,0,0,0,92.15,103.5Z"/><path class="cls-3" d="M49.18,86.34a1,1,0,0,0-.1-.75.26.26,0,0,0-.43,0c-.14.22-.13.4.07.54A3.36,3.36,0,0,0,49.18,86.34Z"/><path class="cls-3" d="M33.73,106.68c.09,0,.14-.19.17-.24,0-.38-.14-.54-.34-.47a.47.47,0,0,0-.26.26C33.26,106.48,33.53,106.76,33.73,106.68Z"/><path class="cls-3" d="M95.08,106.39c0-.31-.23-.4-.57-.3l.12.57C94.91,106.72,95.12,106.69,95.08,106.39Z"/><path class="cls-3" d="M85.08,96a.36.36,0,0,0-.46.29.26.26,0,0,0,.33.28,3.08,3.08,0,0,0,.58-.36C85.3,96.07,85.2,96,85.08,96Z"/><path class="cls-3" d="M56.24,88.38a.45.45,0,0,0,.48.32c.11,0,.21-.11.27-.14,0-.32-.12-.45-.39-.45S56.19,88.25,56.24,88.38Z"/><path class="cls-3" d="M46.54,104.15c.16-.06.31-.32.22-.41a.51.51,0,0,0-.37-.1,3.77,3.77,0,0,0-.7.37C46.38,104.21,46.38,104.21,46.54,104.15Z"/><path class="cls-3" d="M51.4,118.44c-.31.19-.37.37-.22.5a1.59,1.59,0,0,0,.54.26s.1-.06.21-.14C51.76,118.85,51.59,118.66,51.4,118.44Z"/><path class="cls-3" d="M44.12,126.37a.4.4,0,0,0-.22.28c-.06.26.07.45.29.43s.21-.09.28-.12C44.51,126.59,44.34,126.33,44.12,126.37Z"/><path class="cls-3" d="M74.43,136.54c-.21,0-.21.22-.22.39a.27.27,0,0,0,.18.29l.35-.1.06-.07A.4.4,0,0,0,74.43,136.54Z"/><path class="cls-3" d="M69.9,70.49a.42.42,0,0,0-.5-.26c-.11,0-.19.17-.34.32a2.69,2.69,0,0,0,.56.31C69.75,70.89,69.93,70.62,69.9,70.49Z"/><path class="cls-3" d="M79.12,70.75c.09.15.28.24.52.44,0-.2,0-.34,0-.46l-.54-.24A.27.27,0,0,0,79.12,70.75Z"/><path class="cls-3" d="M59.37,75.66c-.26-.12-.46,0-.57.28,0,0,0,.12.06.24l.75,0C59.5,75.92,59.47,75.71,59.37,75.66Z"/><path class="cls-3" d="M51.37,114.53c.2-.31.12-.51-.12-.65a.29.29,0,0,0-.27,0c-.06.06-.11.24-.07.27A3.27,3.27,0,0,0,51.37,114.53Z"/><path class="cls-3" d="M51.63,73.36a1.22,1.22,0,0,0,0-.48c-.51.24-.53.24-.53.47,0,.06.12.19.17.18A.53.53,0,0,0,51.63,73.36Z"/><path class="cls-3" d="M71.85,134a.31.31,0,0,0-.17.23c0,.26.24.51.44.44s.12-.14.16-.19C72.26,134.15,72,133.92,71.85,134Z"/><path class="cls-3" d="M79.29,106a.46.46,0,0,0-.17.32.57.57,0,0,0,.22.32.36.36,0,0,0,.27,0s.06-.11.1-.21a1.2,1.2,0,0,0-.16-.32C79.49,106,79.33,106,79.29,106Z"/><path class="cls-3" d="M53.91,85.94a.38.38,0,0,0,.16.32.32.32,0,0,0,.32-.12,1.44,1.44,0,0,0,0-.46C54.12,85.59,54,85.72,53.91,85.94Z"/><path class="cls-3" d="M78.92,111.55a3.93,3.93,0,0,0,.6.06l.06-.21a2.11,2.11,0,0,0-.48-.32c-.07,0-.23.12-.29.22S78.86,111.54,78.92,111.55Z"/><path class="cls-3" d="M72.45,108.63c-.09-.1-.16-.25-.26-.28-.26-.08-.46,0-.57.45a2.94,2.94,0,0,0,.55,0C72.27,108.84,72.36,108.71,72.45,108.63Z"/><path class="cls-3" d="M59.19,106.18a.4.4,0,0,0-.22.29c0,.09.14.19.24.26s.13,0,.24,0,.15-.08.17-.15S59.39,106.09,59.19,106.18Z"/><path class="cls-3" d="M41,94a1.48,1.48,0,0,0,.47,0,.36.36,0,0,0,.15-.31.4.4,0,0,0-.32-.17A.35.35,0,0,0,41,94Z"/><path class="cls-3" d="M69.14,95.79c-.07,0-.13.13-.22.22l.48.28a1.39,1.39,0,0,0,.3,0C69.67,95.87,69.47,95.73,69.14,95.79Z"/><path class="cls-3" d="M56.71,73c-.29.12-.29.12-.31.66.1,0,.23,0,.28,0A.49.49,0,0,0,56.71,73Z"/><path class="cls-3" d="M46.81,114a1.13,1.13,0,0,0-1,.2C46.41,114.43,46.41,114.43,46.81,114Z"/><path class="cls-3" d="M56.71,108.51c-.07,0-.22.12-.28.23s.09.34.27.32.22-.1.42-.2C56.93,108.69,56.84,108.54,56.71,108.51Z"/><path class="cls-3" d="M64.09,132.06c.55.17.57.15.45-.39A.36.36,0,0,0,64.09,132.06Z"/><path class="cls-3" d="M48.39,106.38l.33.4c.1-.12.2-.18.21-.26s0-.35-.25-.35S48.49,106.3,48.39,106.38Z"/><path class="cls-3" d="M69.54,116.48a2.53,2.53,0,0,0-.37-.31s-.13.1-.21.15c.13.09.24.2.37.28S69.43,116.54,69.54,116.48Z"/><path class="cls-3" d="M79.56,90.72s-.13.1-.21.15a3.37,3.37,0,0,0,.38.28s.09-.05.2-.12A2.53,2.53,0,0,0,79.56,90.72Z"/><path class="cls-3" d="M61.48,88.38a3.54,3.54,0,0,0,.44.11,1.42,1.42,0,0,0,.08-.18,1.18,1.18,0,0,0-.3-.25.26.26,0,0,0-.25.06A.29.29,0,0,0,61.48,88.38Z"/><path class="cls-3" d="M54.29,96.18a.61.61,0,0,0,.08.26c.06,0,.12,0,.12,0a.8.8,0,0,0,.13-.34s-.14-.1-.22-.16C54.36,96,54.29,96.09,54.29,96.18Z"/><path class="cls-3" d="M56.71,119.59a1.47,1.47,0,0,0,.36-.25c-.13-.1-.24-.22-.27-.2a.84.84,0,0,0-.27.26S56.67,119.61,56.71,119.59Z"/><path class="cls-3" d="M46.57,99.07v-.63C46.14,98.76,46.13,98.84,46.57,99.07Z"/><path class="cls-3" d="M50.93,103.83s0,.07.07.07a1.61,1.61,0,0,0,.38,0s.07-.11.06-.17a.21.21,0,0,0-.28-.2c-.09,0-.15.13-.21.2S50.93,103.8,50.93,103.83Z"/><path class="cls-3" d="M81.87,88.38c0,.06.06.16.11.28.11-.11.21-.17.22-.25s-.08-.15-.13-.22S81.89,88.3,81.87,88.38Z"/><path class="cls-3" d="M69.58,86c-.16,0-.4.12-.38.25s.12.12.23.23a1.15,1.15,0,0,0,.27-.27S69.64,86,69.58,86Z"/><path class="cls-3" d="M74.88,116.7a1.29,1.29,0,0,0-.41-.13c-.07,0-.13.11-.19.17a1.1,1.1,0,0,0,.3.16C74.64,116.91,74.72,116.81,74.88,116.7Z"/><path class="cls-3" d="M84.94,121.41c0-.17-.14-.21-.27-.18s-.14.1-.21.16l.34.33A1.11,1.11,0,0,0,84.94,121.41Z"/><path class="cls-3" d="M69,106.47h.59C69.46,106.36,69.25,106.1,69,106.47Z"/><path class="cls-3" d="M56.85,129.22l-.22-.21a1.18,1.18,0,0,0-.17.22s.08.13.11.13A1.43,1.43,0,0,0,56.85,129.22Z"/><path class="cls-3" d="M74.86,106c-.06,0-.11.12-.17.19l.27.16a2,2,0,0,0,.14-.22C75,106.07,74.94,106,74.86,106Z"/><path class="cls-3" d="M51.61,83.8a1.13,1.13,0,0,0,.19-.19l-.18-.12-.17.22S51.58,83.82,51.61,83.8Z"/><path class="cls-3" d="M56.49,83.46c-.17.25,0,.39.18.49C56.87,83.7,56.67,83.59,56.49,83.46Z"/><path class="cls-3" d="M89.87,121.82a1.24,1.24,0,0,0-.18-.22s-.13,0-.16.07a.18.18,0,0,0,.17.27S89.8,121.88,89.87,121.82Z"/><path class="cls-3" d="M76.81,134.12l.12.14c.06,0,.15,0,.17-.07s0-.12,0-.18Z"/><path class="cls-3" d="M49.17,131.93l.16-.09c0-.06,0-.16-.08-.17s-.13,0-.19.05Z"/><path class="cls-3" d="M79.69,81.24l.18-.07c0-.06,0-.16-.07-.18s-.13,0-.19,0Z"/><path class="cls-3" d="M66.63,99.1a.94.94,0,0,0,.09.12l.13-.12L66.69,99S66.62,99.09,66.63,99.1Z"/><path class="cls-3" d="M72,78.18a1.1,1.1,0,0,0-.14-.09.15.15,0,0,0-.07.07.12.12,0,0,0,.05.08A.76.76,0,0,0,72,78.18Z"/><polygon class="cls-3" points="56.47 113.81 56.54 113.85 56.56 113.78 56.47 113.81"/><path class="cls-3" d="M59.3,121.5l-.12,0,0,.09s0,0,.07,0Z"/><path class="cls-3" d="M77.17,124.1a.46.46,0,0,0,.07.16l.07-.15s0,0-.07-.06S77.16,124.09,77.17,124.1Z"/><path class="cls-3" d="M237.49,86.55a1.25,1.25,0,0,0,.39,0,.61.61,0,0,0,.21-1.11,3.53,3.53,0,0,0-.6-.36Z"/><path class="cls-3" d="M238.53,121.67c-.07-.63-.56-.8-1-1v1.06l.47.19C238.25,122.05,238.41,121.91,238.53,121.67Z"/><path class="cls-3" d="M237.49,101.82c.87-.12.93-.19.71-.93l-.71-.13Z"/><path class="cls-3" d="M237.49,117.09h.6c.09-.67.09-1.22-.6-1.49Z"/><path class="cls-3" d="M237.49,112a.79.79,0,0,0,.3,0c.21-.11.5-.13.54-.43s-.25-.39-.46-.5-.25-.1-.38-.15Z"/><path class="cls-3" d="M238.28,75.8c0-.09-.1-.26-.2-.32a2.87,2.87,0,0,0-.59-.17v.85a1.4,1.4,0,0,0,.5,0A.56.56,0,0,0,238.28,75.8Z"/><path class="cls-3" d="M238.09,71a.2.2,0,0,0,0-.07l-.61-.28v.61A.44.44,0,0,0,238.09,71Z"/><path class="cls-3" d="M237.69,126.26l-.2-.05v.84a.75.75,0,0,0,.2,0,.44.44,0,0,0,.43-.48C238.11,126.33,237.9,126.29,237.69,126.26Z"/><path class="cls-3" d="M237.49,106.7c.23,0,.5.15.61-.17s-.09-.45-.32-.58a1.42,1.42,0,0,0-.29-.1Z"/><path class="cls-3" d="M237.49,91.43c.17,0,.34,0,.52,0s.28,0,.24-.3l-.76-.17Z"/><path class="cls-3" d="M237.58,131.54l-.09,0v.63A.44.44,0,0,0,238,132a.32.32,0,0,0,.05-.19C238,131.54,237.76,131.61,237.58,131.54Z"/><path class="cls-3" d="M237.49,80.82c.12,0,.29,0,.36-.07s.06-.32-.08-.44a1.39,1.39,0,0,0-.28-.12Z"/><path class="cls-3" d="M237.49,96.3c.12,0,.3,0,.34-.07s0-.22-.16-.27l-.18-.08Z"/><path class="cls-3" d="M240.42,133.59a1.29,1.29,0,0,0-1,.78,3,3,0,0,0,.25.32c.42-.21.83-.43,1.24-.65Z"/><path class="cls-3" d="M249.85,88.78a.84.84,0,0,0,.59.54c.58-.39.59-.39.62-.65a.63.63,0,0,0-.22-.66.73.73,0,0,0-.79,0A.67.67,0,0,0,249.85,88.78Z"/><path class="cls-3" d="M240.29,114.59a.53.53,0,0,0,.59-.45.87.87,0,0,0-.69-.78.58.58,0,0,0-.55.62C239.63,114.38,239.86,114.6,240.29,114.59Z"/><path class="cls-3" d="M253.59,116.83c0-.18,0-.32,0-.45a.47.47,0,0,0-.36-.55.54.54,0,0,0-.64.23,2.93,2.93,0,0,0-.24.51C252.92,117.15,252.92,117.15,253.59,116.83Z"/><path class="cls-3" d="M242.83,101.87a.55.55,0,0,0,.61-.65.56.56,0,0,0-.47-.58.9.9,0,0,0-.78.71C242.16,101.63,242.46,101.87,242.83,101.87Z"/><path class="cls-3" d="M247.3,126.73c.08.22.13.49.43.56a.62.62,0,0,0,.67-.17.61.61,0,0,0,.1-.24c-.15-.23-.16-.6-.49-.73a.7.7,0,0,0-.49,0A.42.42,0,0,0,247.3,126.73Z"/><path class="cls-3" d="M254.94,119.32l.16.09c.14-.26.28-.53.41-.8A.9.9,0,0,0,254.94,119.32Z"/><path class="cls-3" d="M249.83,99a.51.51,0,0,0,.57.35A4,4,0,0,0,251,99c.08-.34,0-.57-.26-.66a1.11,1.11,0,0,0-.6,0A.51.51,0,0,0,249.83,99Z"/><path class="cls-3" d="M255.05,109.16c.07.33.34.57.56.5a.49.49,0,0,0,.34-.57v-.21c0-.32-.15-.53-.36-.56s-.41.14-.51.44A.91.91,0,0,0,255.05,109.16Z"/><path class="cls-3" d="M252.57,96.67c.23.17.46.13.83-.17.07,0,.09-.17.16-.29l-.75-.71a3.05,3.05,0,0,0-.27.33C252.32,96.27,252.33,96.5,252.57,96.67Z"/><path class="cls-3" d="M240.84,98.93a.66.66,0,0,0-.06-.2,1.15,1.15,0,0,0-.21-.23c-.44-.37-.7-.25-.91.42C240.27,99.36,240.27,99.36,240.84,98.93Z"/><path class="cls-3" d="M240,118.66a.55.55,0,0,0-.32.21.37.37,0,0,0,0,.29.77.77,0,0,0,.67.44c.16,0,.34-.17.52-.26C240.42,118.68,240.37,118.63,240,118.66Z"/><path class="cls-3" d="M245.4,129.84c.54-.51.22-.93,0-1.56-.14.48-.61.48-.64.92A.92.92,0,0,0,245.4,129.84Z"/><path class="cls-3" d="M252.4,91.33c.63.19.69.2,1,.07a.34.34,0,0,0,.14-.25.49.49,0,0,0-.54-.49C252.6,90.68,252.5,90.79,252.4,91.33Z"/><path class="cls-3" d="M250.85,123.89c0-.15-.12-.37-.23-.4s-.33.09-.42.21c-.3.38-.23.63.25,1.06A.93.93,0,0,0,250.85,123.89Z"/><path class="cls-3" d="M243.64,116.65c0-.2-.21-.39-.48-.47a.35.35,0,0,0-.44.18,2.88,2.88,0,0,0-.15.69,2.79,2.79,0,0,0,.51.08C243.44,117.11,243.64,116.92,243.64,116.65Z"/><path class="cls-3" d="M245.6,77.77A.49.49,0,0,0,245,78c-.09.1-.22.2-.24.32a.49.49,0,0,0,.14.35c.05.06.19,0,.37.09s.33-.15.41-.29A.5.5,0,0,0,245.6,77.77Z"/><path class="cls-3" d="M250.76,94a2.08,2.08,0,0,0,.11-.33c0-.14,0-.23,0-.28s-.22-.32-.34-.33a.55.55,0,0,0-.4.27.61.61,0,0,0,.06.69A.36.36,0,0,0,250.76,94Z"/><path class="cls-3" d="M245.34,98.29a.37.37,0,0,0-.4.37c0,.35.16.62.4.62s.53-.34.55-.65S245.64,98.28,245.34,98.29Z"/><path class="cls-3" d="M251,83.76c.07-.34.14-.7-.27-.89s-.54,0-.71.39C250.27,83.62,250.49,83.93,251,83.76Z"/><path class="cls-3" d="M240.53,124.18a.54.54,0,0,0,.13-.37,1.83,1.83,0,0,0-.27-.47c-.25.25-.45.43-.63.63a.32.32,0,0,0,0,.46c.16.17.32,0,.47,0A1,1,0,0,0,240.53,124.18Z"/><path class="cls-3" d="M245.06,124.57a.35.35,0,0,0,.55.06c.18-.15.35-.33.63-.61-.25-.14-.37-.26-.48-.25a1.57,1.57,0,0,0-.59.19A.37.37,0,0,0,245.06,124.57Z"/><path class="cls-3" d="M240,103.37c.09.35,0,.76.48,1l.45-.72C240.59,103.43,240.44,103,240,103.37Z"/><path class="cls-3" d="M245.5,84a5.47,5.47,0,0,0,0-.7c0-.21-.18-.27-.37-.27s-.41.12-.43.35C244.7,83.83,244.84,84,245.5,84Z"/><path class="cls-3" d="M239.83,78.1c-.08.07-.16.27-.12.34s.28.28.38.26a3.94,3.94,0,0,0,.84-.39C240.33,77.87,240.15,77.83,239.83,78.1Z"/><path class="cls-3" d="M245.49,118.66c-.26,0-.34.21-.43.39s-.06.19-.09.28c.44.44.44.44,1-.21C245.72,118.73,245.65,118.66,245.49,118.66Z"/><path class="cls-3" d="M242.7,132.39l.58-.6-.6-.61C242.28,131.64,242.29,131.77,242.7,132.39Z"/><path class="cls-3" d="M258.8,101.08a.42.42,0,0,0-.53-.21,1.6,1.6,0,0,0-.45.41s.06.24.14.32.2.05.31.07a1.63,1.63,0,0,0,.3-.07A.5.5,0,0,0,258.8,101.08Z"/><path class="cls-3" d="M247.72,96.44c.35.18.57.12.71-.11a.46.46,0,0,0,0-.39.76.76,0,0,0-.39-.29,1.53,1.53,0,0,0-.52,0C247.63,96,247.67,96.2,247.72,96.44Z"/><path class="cls-3" d="M245.48,88.13a.54.54,0,0,0-.53.51c0,.18.17.3.57.29.07-.05.28-.14.35-.29S245.67,88.14,245.48,88.13Z"/><path class="cls-3" d="M245.73,103.52c-.09-.2-.25-.36-.46-.32s-.27.17-.37.29a1.86,1.86,0,0,0-.16.43,5.23,5.23,0,0,0,.75,0C245.71,104,245.82,103.74,245.73,103.52Z"/><path class="cls-3" d="M243.39,85.85l-.48-.46c-.34.32-.63.52-.39,1C242.83,86.25,243.18,86.24,243.39,85.85Z"/><path class="cls-3" d="M243,75.42a.48.48,0,0,0-.58.12.39.39,0,0,0,0,.3.51.51,0,0,0,.85.21,1.07,1.07,0,0,0,.17-.31A1.65,1.65,0,0,0,243,75.42Z"/><path class="cls-3" d="M252.4,121.89a1,1,0,0,0,1,0c0-.21,0-.42-.05-.81C253,121.48,252.34,121.21,252.4,121.89Z"/><path class="cls-3" d="M251.05,114a.47.47,0,0,0-.57-.33c-.25.1-.32.35-.21.83.17,0,.33-.1.5-.13S251.09,114.24,251.05,114Z"/><path class="cls-3" d="M248.06,86.54c.17,0,.33-.18.43-.25.07-.35-.1-.64-.32-.67a.48.48,0,0,0-.45.37C247.66,86.24,247.83,86.56,248.06,86.54Z"/><path class="cls-3" d="M240.28,88.15a.49.49,0,0,0-.36.12.3.3,0,0,0,0,.29,5.66,5.66,0,0,0,.43.52.41.41,0,0,0,.36-.49A.48.48,0,0,0,240.28,88.15Z"/><path class="cls-3" d="M248,101.86c.11-.14.24-.24.26-.35a1.47,1.47,0,0,0,0-.51s-.09-.1-.15-.12c-.23-.1-.52.1-.61.45Z"/><path class="cls-3" d="M240.67,83.12c0-.25-.22-.37-.45-.26a2.31,2.31,0,0,0-.39.34c.21.32.34.64.81.55,0-.16,0-.29,0-.43A.67.67,0,0,0,240.67,83.12Z"/><path class="cls-3" d="M239.88,108.72c-.07.26.16.52.56.56.06-.08.2-.19.23-.32a.36.36,0,0,0-.28-.48A.41.41,0,0,0,239.88,108.72Z"/><path class="cls-3" d="M243.27,96.52a.32.32,0,0,0,.14-.24.63.63,0,0,0-.35-.58.58.58,0,0,0-.19,0s-.07,0-.09,0a.43.43,0,0,0-.11.55A.48.48,0,0,0,243.27,96.52Z"/><path class="cls-3" d="M243.25,126.54a.59.59,0,0,0-.74.2.35.35,0,0,0,0,.28,1.16,1.16,0,0,0,.24.25c.33,0,.7-.34.66-.58A.22.22,0,0,0,243.25,126.54Z"/><path class="cls-3" d="M255.27,93.28c-.36.58-.31.72.29.75.13,0,.27,0,.51,0C255.68,93.45,255.67,93.46,255.27,93.28Z"/><path class="cls-3" d="M245.75,113.78c-.24-.29-.48-.29-.68-.12s-.18.42,0,.67C245.47,114.33,245.62,114.07,245.75,113.78Z"/><path class="cls-3" d="M255.67,113.65a.37.37,0,0,0-.36.08.42.42,0,0,0,0,.36.85.85,0,0,0,.44.25c.09,0,.21-.12.39-.22A3,3,0,0,0,255.67,113.65Z"/><path class="cls-3" d="M243.13,106.78a1.49,1.49,0,0,0,.29-.36,1.48,1.48,0,0,0-.45-.25c-.1,0-.3.1-.31.18a.67.67,0,0,0,.12.45S243,106.83,243.13,106.78Z"/><path class="cls-3" d="M255.19,88.63l.67.33a.88.88,0,0,1,.1-.22c-.08-.18-.16-.36-.25-.54,0,0-.06,0-.07,0A2.51,2.51,0,0,0,255.19,88.63Z"/><path class="cls-3" d="M253.13,111.78c.18.09.43-.11.45-.41-.07-.07-.16-.23-.3-.29s-.47.15-.43.33A.61.61,0,0,0,253.13,111.78Z"/><path class="cls-3" d="M242.78,81.18a.38.38,0,0,0,.33-.1.36.36,0,0,0,0-.35.4.4,0,0,0-.34-.1,1.77,1.77,0,0,0-.46.26C242.56,81.05,242.66,81.16,242.78,81.18Z"/><path class="cls-3" d="M240.31,129.42c.2,0,.34,0,.37-.35a1,1,0,0,0-.27-.31c-.13-.08-.43.17-.43.35S240.11,129.41,240.31,129.42Z"/><path class="cls-3" d="M247.54,121.69a.46.46,0,0,0,.58.29c.06,0,.1-.08.19-.16a1.5,1.5,0,0,0-.24-.31.33.33,0,0,0-.46,0A.22.22,0,0,0,247.54,121.69Z"/><path class="cls-3" d="M248,91.57c.08-.24.17-.49.26-.74-.4-.07-.53,0-.59.3A.37.37,0,0,0,248,91.57Z"/><path class="cls-3" d="M248.09,106c-.11,0-.28.2-.26.24a1.51,1.51,0,0,0,.33.39c.13-.17.24-.25.27-.36S248.24,105.92,248.09,106Z"/><path class="cls-3" d="M242.44,111.44a.72.72,0,0,0,.76,0C242.6,111.09,242.6,111.09,242.44,111.44Z"/><path class="cls-3" d="M253.38,85.91a.29.29,0,0,0-.31-.33,1.39,1.39,0,0,0-.39.11c.14.17.18.28.26.32a.88.88,0,0,0,.36.06S253.38,86,253.38,85.91Z"/><path class="cls-3" d="M253.5,101.11c-.51-.34-.51-.34-.87,0A.73.73,0,0,0,253.5,101.11Z"/><path class="cls-3" d="M248,111.81c.13,0,.3-.06.24-.22s-.19-.22-.37-.42c-.08.22-.18.34-.15.43A.41.41,0,0,0,248,111.81Z"/><path class="cls-3" d="M242.52,91a1.61,1.61,0,0,0,.38,0s.06-.11,0-.16-.13-.26-.29-.21-.14.13-.2.21a.15.15,0,0,0,0,.1S242.49,91,242.52,91Z"/><path class="cls-3" d="M255.39,103.73s0,.07,0,.1.06.07.08.07a1.61,1.61,0,0,0,.38,0s.07-.11.06-.17-.14-.25-.29-.2S255.46,103.66,255.39,103.73Z"/><path class="cls-3" d="M258,106.24a2,2,0,0,0,.26.24s.14-.09.28-.19a1.73,1.73,0,0,0-.36-.22S258.07,106.18,258,106.24Z"/><path class="cls-3" d="M243,121.71c.07,0,.12-.13.21-.22-.1-.07-.18-.17-.25-.17a.28.28,0,0,0-.2.17A.19.19,0,0,0,243,121.71Z"/><path class="cls-3" d="M240.42,93.44s.05.08.06.08a.83.83,0,0,0,.16-.09.76.76,0,0,0-.16-.06S240.44,93.41,240.42,93.44Z"/><polygon class="cls-3" points="252.96 106.4 252.9 106.36 252.88 106.42 252.96 106.4"/><path class="cls-3" d="M237.48,95.46c-.17,0-.36-.1-.48.08s-.22.42-.32.61a.79.79,0,0,0,.8.58Z"/><path class="cls-3" d="M237.48,101c-.1,0-.2-.11-.29-.1a.76.76,0,0,0-.46.13c-.13.12-.07.31.05.47a.75.75,0,0,0,.7.35Z"/><path class="cls-3" d="M237.48,106.06l-.57-.26a.72.72,0,0,0-.16.9h.73Z"/><path class="cls-3" d="M237.48,110.72c-.81.48-.83.67-.09,1.22l.09.06Z"/><path class="cls-3" d="M237.48,126.21a.55.55,0,0,0-.63.2c-.25.3-.17.57.23.66a1.38,1.38,0,0,0,.4,0Z"/><path class="cls-3" d="M237.1,131.32a1.58,1.58,0,0,0-.06.68c0,.22.28.1.44.14v-.85C237.35,131.3,237.11,131.28,237.1,131.32Z"/><path class="cls-3" d="M237.48,116c-.21,0-.44-.08-.54.18s.09.38.27.5l.27.16Z"/><path class="cls-3" d="M237.48,80.61a1.3,1.3,0,0,0-.46.09.37.37,0,0,0-.12.35c.08.35.37.17.58.2Z"/><path class="cls-3" d="M237.48,90.58a1.17,1.17,0,0,0-.27.15c-.27.32-.17.56.27.7Z"/><path class="cls-3" d="M237.48,85.49a2.08,2.08,0,0,0-.27.32c-.21.33-.18.38.27.53Z"/><path class="cls-3" d="M237.48,70.66a1.57,1.57,0,0,1-.23-.09l-.24.15.47.35Z"/><path class="cls-3" d="M237.48,121.33c-.15,0-.33-.21-.42,0,0,.06.16.19.25.27a.62.62,0,0,0,.17.11Z"/><path class="cls-3" d="M206.76,132.59c.18-.16.35-.28.49-.43a.56.56,0,0,0,0-.68.86.86,0,0,0-.74-.29c-.25.05-.39.29-.43.65S206.31,132.46,206.76,132.59Z"/><path class="cls-3" d="M214.29,134.9a.75.75,0,0,0,.92-.62c0-.23-.19-.57-.4-.54-.46.07-1,.07-1.24.57C213.67,134.71,214,134.79,214.29,134.9Z"/><path class="cls-3" d="M218.84,73.05c.07.48.22.87.78,1,.53-.28.55-.73.4-1.3A1,1,0,0,0,218.84,73.05Z"/><path class="cls-3" d="M191.74,90.49a.66.66,0,0,0-.76.17.71.71,0,0,0-.09.69.49.49,0,0,0,.68.28,6.6,6.6,0,0,0,.75-.64A4,4,0,0,0,191.74,90.49Z"/><path class="cls-3" d="M198.84,124.54a2.58,2.58,0,0,0,.48.21.45.45,0,0,0,.53-.38.77.77,0,0,0-.72-.85.6.6,0,0,0-.62.44C198.44,124.25,198.61,124.42,198.84,124.54Z"/><path class="cls-3" d="M230.13,134.91a.65.65,0,0,0,.33-.36,4,4,0,0,0,0-.78c-.55-.09-1-.17-1.23.36.11.2.2.42.33.62A.45.45,0,0,0,230.13,134.91Z"/><path class="cls-3" d="M219.47,135c.84-.68.84-.79,0-1.44a1.38,1.38,0,0,0-.62.93Z"/><path class="cls-3" d="M204.29,103.05c-.28.22-.6.41-.69.79a1.37,1.37,0,0,0,.78.48C205,103.68,205,103.64,204.29,103.05Z"/><path class="cls-3" d="M194.06,87.71c-.33.07-.69.46-.65.73a.75.75,0,0,0,.68.67c.19-.36.36-.69.53-1C194.53,87.81,194.35,87.66,194.06,87.71Z"/><path class="cls-3" d="M203.71,93.84a5.33,5.33,0,0,0,.48.42l.6-.35a.71.71,0,0,0-.33-.76.5.5,0,0,0-.74,0A.46.46,0,0,0,203.71,93.84Z"/><path class="cls-3" d="M214.48,119.62c.72-.61.71-.75-.06-1.31l-.66.69C213.89,119.43,214.19,119.51,214.48,119.62Z"/><path class="cls-3" d="M221.4,131.66a.83.83,0,0,0,.38.7c.19.12.44,0,.66-.35a3.68,3.68,0,0,0,.19-.45l-.37-.25-.18-.11A.54.54,0,0,0,221.4,131.66Z"/><path class="cls-3" d="M196,121.45a.78.78,0,0,0,.6.72l.67-.46c-.36-.68-.48-.78-.77-.72A.59.59,0,0,0,196,121.45Z"/><path class="cls-3" d="M229.29,93.08a.5.5,0,0,0-.22.63.86.86,0,0,0,.84.41l.33-.62C229.93,93.15,229.71,92.85,229.29,93.08Z"/><path class="cls-3" d="M232.26,127.48c.23-.06.48-.12.55-.41a.63.63,0,0,0-.28-.72c-.42-.17-.64.11-.84.39C231.89,127.37,232,127.54,232.26,127.48Z"/><path class="cls-3" d="M227.21,137.49c.32,0,.53-.26.52-.63s-.26-.63-.56-.59a.58.58,0,0,0-.48.68A.54.54,0,0,0,227.21,137.49Z"/><path class="cls-3" d="M224.79,73.71a1.71,1.71,0,0,0,.4-.17.46.46,0,0,0,.15-.36.87.87,0,0,0-.82-.55c-.25,0-.37.16-.45.37a.35.35,0,0,0,.17.45A3.94,3.94,0,0,0,224.79,73.71Z"/><path class="cls-3" d="M222.17,86.55a.4.4,0,0,0,.28-.08.67.67,0,0,0,.07-.86.6.6,0,0,0-.75-.08,3.4,3.4,0,0,0-.38.47C221.78,86.38,222,86.53,222.17,86.55Z"/><path class="cls-3" d="M232.56,80.41a.33.33,0,0,0-.47-.07c-.26.17-.58.36-.49.72s.37.39.7.42c.16-.14.33-.31.56-.53A5.61,5.61,0,0,0,232.56,80.41Z"/><path class="cls-3" d="M226.63,132a6.5,6.5,0,0,0,.53.51,1.12,1.12,0,0,0,.23-1.38,1.76,1.76,0,0,0-.53,0A.49.49,0,0,0,226.63,132Z"/><path class="cls-3" d="M232.37,132.35c.31-.63.28-1-.06-1.12a.4.4,0,0,0-.3,0,.71.71,0,0,0-.55.53A1.27,1.27,0,0,0,232.37,132.35Z"/><path class="cls-3" d="M232.08,96.73a.56.56,0,0,0,.43.19c.22,0,.3-.25.31-.48a1.1,1.1,0,0,0-.5-.91c-.33.19-.62.33-.61.7A3.08,3.08,0,0,0,232.08,96.73Z"/><path class="cls-3" d="M199.06,87.85c-.22.32-.65.42-.48.82s.53.28.84.26.47-.13.47-.48Z"/><path class="cls-3" d="M224.71,77.74a.55.55,0,0,0-.56.5c0,.31.28.69.51.71a.51.51,0,0,0,.53-.52C225.21,78,225,77.75,224.71,77.74Z"/><path class="cls-3" d="M229.94,72.87c-.47-.29-.55-.26-1,.29a.79.79,0,0,0,.8.51.5.5,0,0,0,.5-.3C230.3,73.12,230.11,73,229.94,72.87Z"/><path class="cls-3" d="M221.27,121.53s0,.2,0,.27a.46.46,0,0,0,.55.19,9.57,9.57,0,0,0,.91-.34c0-.17,0-.26-.08-.29A1.13,1.13,0,0,0,221.27,121.53Z"/><path class="cls-3" d="M209.85,98.79a.33.33,0,0,0-.1-.45c-.23-.09-.46-.14-.74-.22-.12.22-.23.43-.34.62C209.14,99.17,209.5,99.17,209.85,98.79Z"/><path class="cls-3" d="M222,91.67a.48.48,0,0,0,.41-.5.57.57,0,0,0-.65-.52.53.53,0,0,0-.48.45A.64.64,0,0,0,222,91.67Z"/><path class="cls-3" d="M219.54,118.66a1,1,0,0,0-.55.2c-.14.08-.12.39,0,.44a2.34,2.34,0,0,0,.68.17c.25,0,.47-.06.61-.49A3.44,3.44,0,0,0,219.54,118.66Z"/><path class="cls-3" d="M208.53,93.71a.63.63,0,0,0,.39.29,1.48,1.48,0,0,0,1.14-.17,7.12,7.12,0,0,0-.94-.58c-.12-.06-.34,0-.46.11A.39.39,0,0,0,208.53,93.71Z"/><path class="cls-3" d="M234.71,123.46l-.37.73a.71.71,0,0,0,.93.31c.07-.65.07-.65-.29-1C234.94,123.45,234.85,123.47,234.71,123.46Z"/><path class="cls-3" d="M235.16,114.27a.44.44,0,0,0,.16-.55,3.24,3.24,0,0,0-.43-.56c-.19.17-.3.25-.39.34a.66.66,0,0,0-.12.17.46.46,0,0,0,.12.56A.52.52,0,0,0,235.16,114.27Z"/><path class="cls-3" d="M199.38,104.41q.36,0,.36-.39c0-.38-.23-.64-.52-.63a.55.55,0,0,0-.51.55C198.72,104.23,199,104.42,199.38,104.41Z"/><path class="cls-3" d="M196.43,117.07c.23.11.39-.06.55-.2a2.2,2.2,0,0,0,.15-.24,1.37,1.37,0,0,0-.2-.42c-.11-.11-.28-.25-.42-.24s-.34.23-.36.46A.57.57,0,0,0,196.43,117.07Z"/><path class="cls-3" d="M207.2,121.34c-.12-.12-.26-.22-.4-.34-.43.17-.52.43-.46.72a.81.81,0,0,0,.26.42c.16.13.33,0,.46-.1a3.79,3.79,0,0,0,.31-.39A1.43,1.43,0,0,0,207.2,121.34Z"/><path class="cls-3" d="M206.81,96.77a.5.5,0,0,0,.55-.48c0-.32-.24-.53-.61-.54a.38.38,0,0,0-.42.35A.56.56,0,0,0,206.81,96.77Z"/><path class="cls-3" d="M216.75,86.37a1.41,1.41,0,0,0,.5,0,.36.36,0,0,0,.16-.59c-.11-.13-.26-.23-.46-.42-.2.17-.34.26-.46.38A.38.38,0,0,0,216.75,86.37Z"/><path class="cls-3" d="M209.39,119.67a.5.5,0,0,0,.52-.51.51.51,0,0,0-.55-.49.54.54,0,0,0-.47.57A.52.52,0,0,0,209.39,119.67Z"/><path class="cls-3" d="M216.33,70.75c.14.32.38.45.67.32a2.52,2.52,0,0,0,.56-.48l-.58-.48A.91.91,0,0,0,216.33,70.75Z"/><path class="cls-3" d="M209,72.93a.57.57,0,0,0-.25.41c0,.08.17.25.28.27a6.41,6.41,0,0,0,.89,0C209.76,72.89,209.45,72.68,209,72.93Z"/><path class="cls-3" d="M211.41,121.47v.2c.05.06.13.23.25.3a.45.45,0,0,0,.38-.07.67.67,0,0,0,.13-.86.46.46,0,0,0-.34-.19C211.58,120.83,211.43,121.08,211.41,121.47Z"/><path class="cls-3" d="M209.23,103.31c-.41.22-.46.42-.15.8a2.68,2.68,0,0,0,.34.28,4.45,4.45,0,0,0,.43-.46.46.46,0,0,0-.07-.57C209.62,103.17,209.44,103.21,209.23,103.31Z"/><path class="cls-3" d="M214,83.6c.06.24.27.31.46.36a.33.33,0,0,0,.26-.11,1.87,1.87,0,0,0,.14-.4,1.43,1.43,0,0,0-.2-.45.39.39,0,0,0-.36-.09A.56.56,0,0,0,214,83.6Z"/><path class="cls-3" d="M211.43,75.69c-.09.4.16.55.53.68.28-.2.55-.35.43-.68a.53.53,0,0,0-.6-.3A.36.36,0,0,0,211.43,75.69Z"/><path class="cls-3" d="M213.88,129.35a3.52,3.52,0,0,0,.45.55,1,1,0,0,0,.59-.82c-.41-.4-.66-.43-.91-.1C213.93,129.08,213.84,129.27,213.88,129.35Z"/><path class="cls-3" d="M224.56,113.71a3.61,3.61,0,0,0-.42.45,1.92,1.92,0,0,0,.2.3,1.17,1.17,0,0,0,.3.12l.74-.56C225,113.52,224.87,113.46,224.56,113.71Z"/><path class="cls-3" d="M219.55,128.53a.78.78,0,0,0-.44,1c.42.14.74.15,1-.34Z"/><path class="cls-3" d="M191.3,106a.35.35,0,0,0-.17.12.58.58,0,0,0,.29.84.45.45,0,0,0,.58-.4A.65.65,0,0,0,191.3,106Z"/><path class="cls-3" d="M234.32,78.22a.52.52,0,0,0,.34.49c.3.1.55,0,.69-.38l-.51-.68C234.45,77.69,234.3,77.89,234.32,78.22Z"/><path class="cls-3" d="M204.6,88.89a1,1,0,0,0-.14-.58.56.56,0,0,0-.46-.14c-.2,0-.22.23-.22.41a.82.82,0,0,0,.6.73C204.46,89.17,204.59,89,204.6,88.89Z"/><path class="cls-3" d="M219.51,78a.54.54,0,0,0-.44.61.53.53,0,0,0,.54.39.68.68,0,0,0,.44-.62A.49.49,0,0,0,219.51,78Z"/><path class="cls-3" d="M204.54,108.54a.37.37,0,0,0-.52-.17,2.29,2.29,0,0,0-.23.21c-.28.3-.19.6.21.69a4.17,4.17,0,0,0,.62,0A3.92,3.92,0,0,0,204.54,108.54Z"/><path class="cls-3" d="M196.47,95.76c-.09,0-.23.08-.25.15a.58.58,0,0,0,0,.39.42.42,0,0,0,.52.24,4.12,4.12,0,0,0,.7-.35A1.21,1.21,0,0,0,196.47,95.76Z"/><path class="cls-3" d="M211.88,131.24a.58.58,0,0,0-.4.26.62.62,0,0,0,.06.7.36.36,0,0,0,.61,0,1.8,1.8,0,0,0,.11-.33c0-.14,0-.23,0-.27S212,131.25,211.88,131.24Z"/><path class="cls-3" d="M234.92,119.63a.42.42,0,0,0,.34-.18.4.4,0,0,0,0-.37,3.47,3.47,0,0,0-.54-.5l-.63.76A6.61,6.61,0,0,0,234.92,119.63Z"/><path class="cls-3" d="M219.52,68.69a.45.45,0,0,0,.39,0,.46.46,0,0,0,.18-.31.75.75,0,0,0,0-.33l-.87.12A.81.81,0,0,0,219.52,68.69Z"/><path class="cls-3" d="M214.65,114.55l.1,0a.5.5,0,0,0,.21-.63.57.57,0,0,0-.65-.38.44.44,0,0,0-.33.47C214.08,114.28,214.41,114.57,214.65,114.55Z"/><path class="cls-3" d="M204.27,118.46a.51.51,0,0,0-.44.38c0,.32.28.65.56.61a.48.48,0,0,0,.43-.5A.52.52,0,0,0,204.27,118.46Z"/><path class="cls-3" d="M212.18,126.36a1.08,1.08,0,0,0-.13-.22l-.75.33c.2.59.2.6.45.71a.42.42,0,0,0,.29,0C212.35,127,212.27,126.66,212.18,126.36Z"/><path class="cls-3" d="M211.57,112.1a.22.22,0,0,0,.18.06c.32-.06.27-.37.35-.58s0-.2.07-.33c-.25-.21-.45-.31-.63-.13A.84.84,0,0,0,211.57,112.1Z"/><path class="cls-3" d="M191.88,95.66a.5.5,0,0,0-.38,0,.44.44,0,0,0-.2.53,2.48,2.48,0,0,0,.28.51.41.41,0,0,0,.52-.41C192.12,96.06,192.13,95.79,191.88,95.66Z"/><path class="cls-3" d="M209.45,109.41a.86.86,0,0,0,.16-1,.33.33,0,0,0-.27-.08,2.5,2.5,0,0,0-.47.29c.12.31.22.59.32.86C209.32,109.43,209.41,109.45,209.45,109.41Z"/><path class="cls-3" d="M232.25,106.94l.56-.3c-.4-.65-.41-.69-.72-.69-.15,0-.29.13-.51.23Z"/><path class="cls-3" d="M216.68,121.14c-.36.48-.13.86.31,1.41.15-.47.25-.76.33-1C217.13,121.31,217,121.06,216.68,121.14Z"/><path class="cls-3" d="M194.33,83.71l-.16.26.24.07Z"/><path class="cls-3" d="M198.53,83.64a3.1,3.1,0,0,0,.7.33c.22.06.5-.23.49-.43a.46.46,0,0,0-.42-.4A.79.79,0,0,0,198.53,83.64Z"/><path class="cls-3" d="M229.22,83.38a1.46,1.46,0,0,0-.2.36,1.63,1.63,0,0,0,1.19,0C229.94,82.9,229.76,82.84,229.22,83.38Z"/><path class="cls-3" d="M219.52,124.53a.8.8,0,0,0,.54-.66.9.9,0,0,0-.85-.07.51.51,0,0,0-.23.54A.43.43,0,0,0,219.52,124.53Z"/><path class="cls-3" d="M199.18,109.28a1.27,1.27,0,0,0,.32-.06,3.34,3.34,0,0,0,0-.55.32.32,0,0,0-.47-.25c-.24.09-.46.2-.49.48S198.77,109.25,199.18,109.28Z"/><path class="cls-3" d="M202.26,106.16a.7.7,0,0,0-.23-.22c-.41-.19-.69-.11-.76.18s.1.44.47.56S202.29,106.54,202.26,106.16Z"/><path class="cls-3" d="M206.4,126.4a.28.28,0,0,0,0,.27,2.58,2.58,0,0,0,.6.36c.06,0,.25-.15.27-.25.05-.29-.35-.68-.68-.64A.87.87,0,0,0,206.4,126.4Z"/><path class="cls-3" d="M216.55,131.84c-.05,0-.05.12-.09.22l.48.36.95-.67C217.28,131.52,216.9,131.51,216.55,131.84Z"/><path class="cls-3" d="M221.55,75.82c0,.07.06.31.13.32a.83.83,0,0,0,.6,0c.17-.11.24-.37.36-.58C222,75.35,221.77,75.4,221.55,75.82Z"/><path class="cls-3" d="M216.32,111.74a1.74,1.74,0,0,0,.32.11l.28,0c.3,0,.4-.25.25-.53s-.19-.3-.39-.27-.57.31-.56.54A.23.23,0,0,0,216.32,111.74Z"/><path class="cls-3" d="M209.81,129.07a.56.56,0,0,0-.74-.18.38.38,0,0,0-.16.34.49.49,0,0,0,.52.42h.19s.21-.09.25-.19A.49.49,0,0,0,209.81,129.07Z"/><path class="cls-3" d="M224.6,98.29a.4.4,0,0,0-.46.44c0,.3.15.51.38.55s.46-.22.45-.58A.36.36,0,0,0,224.6,98.29Z"/><path class="cls-3" d="M219.51,89.1c.25,0,.41-.31.37-.65a.37.37,0,0,0-.44-.34.4.4,0,0,0-.38.51C219.09,88.92,219.29,89.13,219.51,89.1Z"/><path class="cls-3" d="M220.09,93.62c-.07-.07-.17-.27-.3-.29-.37-.06-.73.18-.72.43a.51.51,0,0,0,.49.46C219.85,94.24,220.08,94,220.09,93.62Z"/><path class="cls-3" d="M219.47,82.85c-.31.09-.45.3-.35.7.21,0,.44.07.67.07a.33.33,0,0,0,.22-.55A.45.45,0,0,0,219.47,82.85Z"/><path class="cls-3" d="M194.21,119.4a.46.46,0,0,0,.38-.26.88.88,0,0,0,0-.51c0-.08-.14-.13-.2-.17-.36,0-.67.33-.55.63A.53.53,0,0,0,194.21,119.4Z"/><path class="cls-3" d="M216.55,136.48a1.78,1.78,0,0,0,0,.61c0,.13.33.24.42.14a1.31,1.31,0,0,0,.3-.4c.12-.26-.09-.54-.48-.56C216.73,136.31,216.57,136.38,216.55,136.48Z"/><path class="cls-3" d="M224.7,93.23a.61.61,0,0,0-.47.11c-.14.11-.1.32,0,.47a2.29,2.29,0,0,0,.21.23.27.27,0,0,0,.48-.13c0-.1,0-.2.05-.38S224.83,93.27,224.7,93.23Z"/><path class="cls-3" d="M216.46,81.19l.78.06c.09-.64.06-.75-.24-.77S216.54,80.55,216.46,81.19Z"/><path class="cls-3" d="M224.57,83c-.23.08-.22.33-.22.53s.05.31.08.52c.49-.06.59-.38.68-.71C225,83.09,224.86,82.86,224.57,83Z"/><path class="cls-3" d="M206.51,91.4a.49.49,0,0,0,.3.23c.16,0,.36-.26.34-.45a.71.71,0,0,0-.49-.62C206.26,90.93,206.25,91,206.51,91.4Z"/><path class="cls-3" d="M202.16,91.06a.85.85,0,0,0-.33-.37c-.09-.06-.25,0-.39,0,0,.36-.06.68.26.89C202.2,91.34,202.27,91.28,202.16,91.06Z"/><path class="cls-3" d="M204.29,77.84a.33.33,0,0,0-.33.41c.14.48.44.58.83.26a2.11,2.11,0,0,0,.18-.27A.76.76,0,0,0,204.29,77.84Z"/><path class="cls-3" d="M209.92,123.69a.51.51,0,0,0-.38,0,.54.54,0,0,0-.23.32,6.39,6.39,0,0,0,0,.7c.48-.1.69-.31.77-.63A.34.34,0,0,0,209.92,123.69Z"/><path class="cls-3" d="M221.51,137c0,.27.25.3.47.3a2.31,2.31,0,0,0,.39,0,2.24,2.24,0,0,0,0-.37.34.34,0,0,0-.37-.4A.49.49,0,0,0,221.51,137Z"/><path class="cls-3" d="M224.41,129.55a.46.46,0,0,0,.31.2c.05,0,.19-.12.2-.19a8.82,8.82,0,0,0,0-.91C224.36,128.93,224.26,129.13,224.41,129.55Z"/><path class="cls-3" d="M214.36,109.25a.44.44,0,0,0,.42-.39.48.48,0,0,0-.37-.55.5.5,0,0,0-.44.5A.49.49,0,0,0,214.36,109.25Z"/><path class="cls-3" d="M214,98.46a.51.51,0,0,0,.23.53c.07.05.23.08.27,0a5,5,0,0,0,.3-.44.48.48,0,0,0-.5-.49A.34.34,0,0,0,214,98.46Z"/><path class="cls-3" d="M203.83,98.29a.43.43,0,0,0,.21.53.53.53,0,0,0,.66-.09.38.38,0,0,0,0-.1.72.72,0,0,0-.71-.53C204,98.15,203.87,98.21,203.83,98.29Z"/><path class="cls-3" d="M194.42,93.66a.68.68,0,0,0-.73-.37.57.57,0,0,0,.07.88Z"/><path class="cls-3" d="M204.59,124.18a5.5,5.5,0,0,0-.38-.56c-.32.08-.51.19-.5.58a3.72,3.72,0,0,0,.53.33A.27.27,0,0,0,204.59,124.18Z"/><path class="cls-3" d="M193.88,104.19c.27,0,.57-.19.5-.39s-.24-.3-.32-.4c-.35,0-.62.19-.62.41A.46.46,0,0,0,193.88,104.19Z"/><path class="cls-3" d="M217.49,126.47a.4.4,0,0,0-.22-.3.39.39,0,0,0-.36.08,5.73,5.73,0,0,0-.49.82,6.79,6.79,0,0,0,.89-.27A.4.4,0,0,0,217.49,126.47Z"/><path class="cls-3" d="M197,80.83a.4.4,0,0,0-.15-.42l-.49.6.24.42A2.73,2.73,0,0,0,197,80.83Z"/><path class="cls-3" d="M232.47,75.44a2,2,0,0,0-.5,0v.41c0,.24.12.43.38.38a.74.74,0,0,0,.4-.27C232.85,75.76,232.72,75.54,232.47,75.44Z"/><path class="cls-3" d="M206.06,101.78c.81.08.85,0,.83-.8C206.33,101,206.1,101.3,206.06,101.78Z"/><path class="cls-3" d="M214.91,103.29a.51.51,0,0,0-.36-.07c-.3.1-.42.34-.43.73a1.51,1.51,0,0,0,.39,0,1.85,1.85,0,0,0,.37-.19A.31.31,0,0,0,214.91,103.29Z"/><path class="cls-3" d="M226.74,81.15a.9.9,0,0,0,.81-.28c-.1-.18-.2-.38-.35-.67C226.86,80.55,226.64,80.77,226.74,81.15Z"/><path class="cls-3" d="M211.92,95.82s-.23.11-.3.2-.27.36-.07.55.27.19.34.15a2.11,2.11,0,0,0,.44-.42A3.59,3.59,0,0,0,211.92,95.82Z"/><path class="cls-3" d="M226.86,70.48c-.07.08-.13.29-.08.35s.28.26.39.23a2.07,2.07,0,0,0,.57-.41C227.22,70.26,227.1,70.24,226.86,70.48Z"/><path class="cls-3" d="M231.83,116.62l.63.3a.93.93,0,0,0,.07-.92C232,116.14,231.84,116.27,231.83,116.62Z"/><path class="cls-3" d="M217.27,95.77a.39.39,0,0,0-.52.22c-.07.23.13.55.36.52s.31-.2.54-.36C217.48,96,217.4,95.82,217.27,95.77Z"/><path class="cls-3" d="M211.27,91.1c.16.24.54,0,.69.3a.68.68,0,0,0,.25-.09s0-.13,0-.2c-.06-.29-.32-.35-.54-.39S211.29,90.83,211.27,91.1Z"/><path class="cls-3" d="M227.18,96.56a.91.91,0,0,0,.29-.1,1.13,1.13,0,0,0,0-.31c-.06-.22-.2-.39-.45-.33a.42.42,0,0,0-.33.47C226.73,96.57,227,96.57,227.18,96.56Z"/><path class="cls-3" d="M235.53,93.6a.45.45,0,0,0-.54-.37c-.19,0-.28.25-.23.52s.19.27.38.25A.4.4,0,0,0,235.53,93.6Z"/><path class="cls-3" d="M211.92,100.89c-.24,0-.4.18-.45.64.55.14.75.11.77-.14A.57.57,0,0,0,211.92,100.89Z"/><path class="cls-3" d="M235.09,134.16a1,1,0,0,0-.56.14c-.09,0-.11.21-.19.38h.93C235.4,134.4,235.34,134.19,235.09,134.16Z"/><path class="cls-3" d="M232.71,70.26c-.3,0-.62-.05-.86.2-.06.06,0,.19-.06.37a2.45,2.45,0,0,0,.71,0A.36.36,0,0,0,232.71,70.26Z"/><path class="cls-3" d="M188.87,108.51h0c0,.24.08.48.12.72l.57.05C189.44,108.79,189.24,108.6,188.87,108.51Z"/><path class="cls-3" d="M206.39,111.5c.54.14.74.1.76-.15a.54.54,0,0,0-.32-.49C206.59,110.81,206.43,111,206.39,111.5Z"/><path class="cls-3" d="M212.16,80.55c-.28-.08-.44.13-.58.32a.31.31,0,0,0,0,.28.42.42,0,0,0,.56.09c.13-.07.21-.23.33-.38C212.35,80.72,212.27,80.59,212.16,80.55Z"/><path class="cls-3" d="M206.65,75.41a.42.42,0,0,0-.29.25.44.44,0,0,0,.49.53c.11,0,.22-.11.29-.14C207.16,75.65,207,75.39,206.65,75.41Z"/><path class="cls-3" d="M197.18,111.34a.29.29,0,0,0-.33-.31c-.26,0-.4.16-.36.4a4.67,4.67,0,0,0,.14.5A.61.61,0,0,0,197.18,111.34Z"/><path class="cls-3" d="M234.76,109.25c.11,0,.22-.11.29-.15a.58.58,0,0,0-.36-.61.33.33,0,0,0-.36.29A.44.44,0,0,0,234.76,109.25Z"/><path class="cls-3" d="M221.9,111.17a.3.3,0,0,0-.44.14.35.35,0,0,0,0,.28.33.33,0,0,0,.43.19,3.74,3.74,0,0,0,.47-.31C222.19,111.35,222.05,111.25,221.9,111.17Z"/><path class="cls-3" d="M227,106.72a.44.44,0,0,0,.52-.46c-.08-.07-.19-.23-.33-.27s-.46.2-.44.46A.4.4,0,0,0,227,106.72Z"/><path class="cls-3" d="M232.25,122a1.51,1.51,0,0,0,.32-.53c0-.06-.06-.24-.12-.26a.45.45,0,0,0-.36.08,4.73,4.73,0,0,0-.38.72C232,122,232.18,122,232.25,122Z"/><path class="cls-3" d="M214.53,124.81a.78.78,0,0,0,0-.3,8,8,0,0,0-.19-.82c-.18.11-.33.16-.34.22a2,2,0,0,0,.06.6C214.15,124.7,214.25,124.9,214.53,124.81Z"/><path class="cls-3" d="M229.42,129.62l.83-.34c-.55-.41-.57-.41-.86-.07A.25.25,0,0,0,229.42,129.62Z"/><path class="cls-3" d="M194.22,114.32a.52.52,0,0,0,.37-.28c.1-.19-.17-.45-.52-.47-.06.09-.21.21-.23.34A.36.36,0,0,0,194.22,114.32Z"/><path class="cls-3" d="M227.29,116.68c.1,0,.18-.16.22-.21,0-.39-.26-.6-.47-.5a.61.61,0,0,0-.29.38C226.73,116.57,227,116.75,227.29,116.68Z"/><path class="cls-3" d="M212.41,70.93a.41.41,0,0,0-.51-.38.44.44,0,0,0-.25.28.46.46,0,0,0,.53.46C212.24,71.2,212.39,71.07,212.41,70.93Z"/><path class="cls-3" d="M229.51,119c-.16.23,0,.46.29.59l.52-.54C230,118.8,229.69,118.77,229.51,119Z"/><path class="cls-3" d="M199.5,93.74a.27.27,0,0,0,.12-.16.34.34,0,0,0-.11-.25,1.15,1.15,0,0,0-.31-.14,2,2,0,0,0-.27,0c-.06,0-.15.08-.15.12a.4.4,0,0,0,.07.28A.51.51,0,0,0,199.5,93.74Z"/><path class="cls-3" d="M196.47,100.69c-.07.11-.26.27-.25.42a.38.38,0,0,0,.47.31.35.35,0,0,0,.26-.24A.42.42,0,0,0,196.47,100.69Z"/><path class="cls-3" d="M209,88.61c0,.21.16.3.36.31s.36-.1.35-.49c0-.06-.13-.24-.26-.29S209,88.35,209,88.61Z"/><path class="cls-3" d="M216.67,91.42c.21.09.46-.17.44-.44a.8.8,0,0,0-.15-.29c-.34,0-.64.16-.6.38A.54.54,0,0,0,216.67,91.42Z"/><path class="cls-3" d="M222.47,70.53l-.49-.2c-.27.33-.17.54.14.75C222.26,70.93,222.58,70.94,222.47,70.53Z"/><path class="cls-3" d="M229.25,88.4c0,.15.13.3.33.32s.45-.08.47-.37c-.06-.07-.13-.25-.26-.31A.47.47,0,0,0,229.25,88.4Z"/><path class="cls-3" d="M201.3,101.5a.47.47,0,0,0,.44.1c.15-.08.25-.28.42-.49-.17-.09-.27-.2-.36-.19a.76.76,0,0,0-.37.16C201.26,101.18,201.19,101.38,201.3,101.5Z"/><path class="cls-3" d="M219.1,109c.12.07.28.22.44.23s.26-.22.29-.36-.13-.31-.32-.34S219.09,108.72,219.1,109Z"/><path class="cls-3" d="M214,78.23c0,.19.14.31.53.31.06-.06.22-.16.25-.28s-.15-.34-.41-.32A.35.35,0,0,0,214,78.23Z"/><path class="cls-3" d="M216.75,106.1a3.63,3.63,0,0,0,.18.43.26.26,0,0,0,.41.11.33.33,0,0,0,.08-.52A.42.42,0,0,0,216.75,106.1Z"/><path class="cls-3" d="M202,75.53l-.08-.09-.49.39a.6.6,0,0,0,.12.11C201.76,76,202,75.83,202,75.53Z"/><path class="cls-3" d="M204.12,113.61c-.23.07-.12.24,0,.4a3.22,3.22,0,0,1,.23.49c.36-.22.35-.46.21-.67S204.23,113.58,204.12,113.61Z"/><path class="cls-3" d="M211.92,106c-.21,0-.32.18-.27.37s.18.25.34.48a2.24,2.24,0,0,0,.24-.54A.27.27,0,0,0,211.92,106Z"/><path class="cls-3" d="M214.63,88.87c.22-.07.19-.28.15-.43s-.18-.23-.25-.32c-.28.07-.37.2-.33.4S214.46,88.93,214.63,88.87Z"/><path class="cls-3" d="M231.79,91.07a2.46,2.46,0,0,0,.07.29.93.93,0,0,0,.74-.3.75.75,0,0,0-.75-.21C231.82,91,231.78,91,231.79,91.07Z"/><path class="cls-3" d="M189.07,103.54a.27.27,0,0,0-.24-.13.54.54,0,0,0-.29.24,1.79,1.79,0,0,0,0,.55c.28-.15.44-.19.51-.28A.55.55,0,0,0,189.07,103.54Z"/><path class="cls-3" d="M209.26,133.89a1.76,1.76,0,0,0-.24.42.45.45,0,0,0,.12.35.44.44,0,0,0,.38,0C209.75,134.45,209.71,134.29,209.26,133.89Z"/><path class="cls-3" d="M224.94,134.83l.36-.4c-.13-.09-.24-.24-.39-.27a.25.25,0,0,0-.31.3C224.62,134.58,224.79,134.67,224.94,134.83Z"/><path class="cls-3" d="M204.72,129.26a.3.3,0,0,0-.09-.26c-.24-.14-.36.08-.48.22a1.31,1.31,0,0,0-.12.27.8.8,0,0,0,.18.12C204.52,129.71,204.64,129.49,204.72,129.26Z"/><path class="cls-3" d="M228.52,109c.06.11.19.25.27.24a3.43,3.43,0,0,0,.57-.26c-.26-.35-.48-.36-.71-.22C228.58,108.82,228.5,109,228.52,109Z"/><path class="cls-3" d="M199.51,78.47c0-.19,0-.37-.25-.4s-.31.12-.36.3a2.43,2.43,0,0,0,0,.3,1.35,1.35,0,0,0,.31.07C199.35,78.75,199.51,78.69,199.51,78.47Z"/><path class="cls-3" d="M229.89,114.53c.23-.07.2-.28.16-.43a1,1,0,0,0-.24-.31c-.27,0-.39.21-.35.39S229.73,114.58,229.89,114.53Z"/><path class="cls-3" d="M201.29,127a.41.41,0,0,0,.34-.08,1.71,1.71,0,0,0,.22-.45l-.13-.17a3.11,3.11,0,0,0-.47.29C201.1,126.73,201.13,127,201.29,127Z"/><path class="cls-3" d="M227,127.08a1.46,1.46,0,0,0,.44-.2s0-.18,0-.27-.1-.06-.22-.12a2.47,2.47,0,0,0-.38.25c-.05.05,0,.18,0,.26A.19.19,0,0,0,227,127.08Z"/><path class="cls-3" d="M221.71,116.48a.41.41,0,0,0,.52.19c.07,0,.16-.2.14-.22s-.28-.25-.43-.39a1.41,1.41,0,0,0-.27.23A.24.24,0,0,0,221.71,116.48Z"/><path class="cls-3" d="M196.85,86.38a.28.28,0,0,0-.09-.26c-.17-.16-.37-.18-.64.13a3.17,3.17,0,0,0,.5.27A.27.27,0,0,0,196.85,86.38Z"/><path class="cls-3" d="M212.41,85.93a2.27,2.27,0,0,0-.39-.42,1.9,1.9,0,0,0-.16.45.34.34,0,0,0,.31.35A.3.3,0,0,0,212.41,85.93Z"/><path class="cls-3" d="M193.92,98.84a2.58,2.58,0,0,0,.6,0,3.83,3.83,0,0,0-.39-.46.29.29,0,0,0-.44.09C193.6,98.64,193.75,98.79,193.92,98.84Z"/><path class="cls-3" d="M192,101.31c-.14-.16-.21-.32-.3-.32-.32,0-.45.19-.51.47C191.4,101.62,191.59,101.45,192,101.31Z"/><path class="cls-3" d="M222.47,100.92a.19.19,0,0,0-.19,0,2.86,2.86,0,0,0-.24.42.23.23,0,0,0,.08.17c.08,0,.22.06.27,0a2,2,0,0,0,.29-.39A1.5,1.5,0,0,0,222.47,100.92Z"/><path class="cls-3" d="M196.88,106.55a.3.3,0,0,0,0-.27c-.21-.23-.42-.17-.64.11C196.46,106.63,196.63,106.81,196.88,106.55Z"/><path class="cls-3" d="M222,106s-.17.1-.19.18a.41.41,0,0,0,.33.53.25.25,0,0,0,.18-.06A.45.45,0,0,0,222,106Z"/><path class="cls-3" d="M189,98.88a1.81,1.81,0,0,0,.42-.2c-.2-.18-.29-.32-.42-.35s-.19.1-.26.2,0,.12,0,.17A.27.27,0,0,0,189,98.88Z"/><path class="cls-3" d="M227.12,90.59c-.11,0-.24.19-.23.29a.42.42,0,0,0,.47.31c.07,0,.11-.15.14-.2C227.49,90.68,227.32,90.51,227.12,90.59Z"/><path class="cls-3" d="M224.4,68c0,.11.16.29.22.28s.24-.15.42-.26l0-.06h-.59S224.39,68,224.4,68Z"/><path class="cls-3" d="M207.8,105.9c-.11.06-.27.15-.28.24,0,.29.11.46.47.47a2.88,2.88,0,0,0,0-.51C208,106,207.82,105.89,207.8,105.9Z"/><path class="cls-3" d="M232.37,137a1.43,1.43,0,0,0,.48,0,1.58,1.58,0,0,0-.29-.44c-.08,0-.24,0-.36,0s-.1.14-.08.16A.6.6,0,0,0,232.37,137Z"/><path class="cls-3" d="M226.63,101.06c-.08.2.13.46.44.55a.91.91,0,0,0,.17-.09s0-.06,0-.09c-.09-.32-.35-.53-.56-.44A.12.12,0,0,0,226.63,101.06Z"/><path class="cls-3" d="M234.67,83c-.21,0-.3.13-.33.31s0,.33.21.29.26-.17.45-.3C234.86,83.12,234.78,83,234.67,83Z"/><path class="cls-3" d="M234.88,128.9c-.08,0-.19.17-.21.28s.2.28.38.21.18-.15.35-.32C235.16,129,235,128.89,234.88,128.9Z"/><path class="cls-3" d="M234.57,103.8a3.09,3.09,0,0,0,.31.43c.11-.19.23-.29.23-.39s-.19-.27-.37-.23S234.56,103.76,234.57,103.8Z"/><path class="cls-3" d="M232.05,101.33a.38.38,0,0,0,.28.23c.09,0,.19-.15.36-.31-.2-.08-.3-.17-.41-.17S232,101.18,232.05,101.33Z"/><path class="cls-3" d="M201.91,111.63s-.07-.16-.09-.16a4,4,0,0,0-.48.09s0,.16,0,.16a2.42,2.42,0,0,0,.47.06S201.87,111.68,201.91,111.63Z"/><path class="cls-3" d="M191.54,116.13a.28.28,0,0,0-.23.38c0,.07.13.12.25.22.11-.15.24-.27.26-.41S191.68,116.11,191.54,116.13Z"/><path class="cls-3" d="M212.13,116.63s.07-.06.07-.09,0-.3-.09-.35a.38.38,0,0,0-.36,0c-.14.12,0,.24.1.3S212,116.59,212.13,116.63Z"/><path class="cls-3" d="M217.1,75.69c.07,0,.11-.14.2-.27a1.23,1.23,0,0,0-.35-.17c-.06,0-.17.11-.18.18S217,75.76,217.1,75.69Z"/><path class="cls-3" d="M214.73,73.39s-.14-.11-.22-.16-.11.17-.11.26a.65.65,0,0,0,.08.26c.06,0,.12,0,.13,0A.93.93,0,0,0,214.73,73.39Z"/><path class="cls-3" d="M235.13,73.42c0-.22-.08-.4-.3-.37a1.77,1.77,0,0,0-.05.41c0,.06.16.1.25.13A.29.29,0,0,0,235.13,73.42Z"/><path class="cls-3" d="M209.36,114a.25.25,0,0,0,.17.08c.05,0,.14-.07.14-.11,0-.21,0-.43-.31-.45C209.36,113.69,209.35,113.85,209.36,114Z"/><path class="cls-3" d="M232.17,86.35a1.17,1.17,0,0,0,.37,0c0-.26-.14-.33-.33-.3s-.14.1-.21.15S232.1,86.34,232.17,86.35Z"/><path class="cls-3" d="M199.27,119.2c.07,0,.15-.08.32-.17a1.84,1.84,0,0,0-.37-.24c-.06,0-.19.1-.21.18S199.14,119.19,199.27,119.2Z"/><path class="cls-3" d="M230.11,124.2c-.15-.09-.24-.19-.28-.17a1,1,0,0,0-.31.23.19.19,0,0,0,0,.18s.14.09.17.07A4.83,4.83,0,0,0,230.11,124.2Z"/><path class="cls-3" d="M235.17,98.62l-.16-.25c-.09.08-.22.15-.24.25a.17.17,0,0,0,.23.21C235.07,98.82,235.11,98.7,235.17,98.62Z"/><path class="cls-3" d="M201.79,96.28l.37,0c0-.12-.08-.23-.09-.23l-.34.09C201.75,96.17,201.76,96.28,201.79,96.28Z"/><path class="cls-3" d="M194.27,108.73c-.07,0-.12.12-.17.19a1,1,0,0,0,.32.13c.06,0,.13-.1.28-.23A1.35,1.35,0,0,0,194.27,108.73Z"/><path class="cls-3" d="M199.18,113.64a1.45,1.45,0,0,0-.36,0s0,.11-.06.17.05.06.08.06h.36C199.19,113.8,199.19,113.64,199.18,113.64Z"/><path class="cls-3" d="M227.34,121.5c-.16,0-.23.12-.2.26s.13.19.16.18.17-.12.38-.3C227.51,121.57,227.43,121.5,227.34,121.5Z"/><path class="cls-3" d="M221.88,126.3c-.11.09-.22.14-.24.21s0,.18.07.27.2-.09.23-.16S221.91,126.44,221.88,126.3Z"/><path class="cls-3" d="M229.29,98.91s.09.13.12.12a.87.87,0,0,0,.27-.14l-.21-.21A1.3,1.3,0,0,0,229.29,98.91Z"/><path class="cls-3" d="M207,106.54c0-.05-.06-.13-.1-.15s-.12,0-.17.07a1.37,1.37,0,0,0,.13.2Z"/><path class="cls-3" d="M201.49,86c0,.06.16.08.25.1a.3.3,0,0,0,.06-.17,2.23,2.23,0,0,0-.18-.37C201.53,85.82,201.46,85.94,201.49,86Z"/><path class="cls-3" d="M201.31,80.61s0,.16.05.16.22,0,.24-.07,0-.18,0-.32A1.34,1.34,0,0,0,201.31,80.61Z"/><path class="cls-3" d="M224.83,103.67a.21.21,0,0,0-.18.06c-.1.22,0,.31.22.38A.27.27,0,0,0,224.83,103.67Z"/><path class="cls-3" d="M232.22,111.29c-.06,0-.12.12-.18.19l.27.17.15-.23C232.38,111.38,232.3,111.29,232.22,111.29Z"/><path class="cls-3" d="M224.6,109s0,.12.06.18l.23-.14-.1-.18A.55.55,0,0,0,224.6,109Z"/><path class="cls-3" d="M206.78,86a1.42,1.42,0,0,0,.23.14s.07-.09.13-.17l-.21-.18Z"/><path class="cls-3" d="M227,111.62l-.16-.08s-.07.06-.06.07a1,1,0,0,0,.09.13Z"/><path class="cls-3" d="M206.79,117s.05.06.07.06L207,117l-.11-.12Z"/><path class="cls-3" d="M224.86,123.86s-.1.06-.11.11a.28.28,0,0,0,.05.17.94.94,0,0,0,.16,0C224.93,124,224.89,123.94,224.86,123.86Z"/><path class="cls-3" d="M224.92,88.76c0-.05-.07-.14-.11-.14s-.12,0-.18.07a1.54,1.54,0,0,0,.17.19Z"/><path class="cls-3" d="M221.88,80.77a2,2,0,0,0,.2.21l.11-.17a1.7,1.7,0,0,0-.22-.15S221.87,80.76,221.88,80.77Z"/><path class="cls-3" d="M207,80.88s-.11,0-.17.06.11.16.17.23.1,0,.17-.08A.92.92,0,0,0,207,80.88Z"/><path class="cls-2" d="M223.76,94.41a8.64,8.64,0,1,0,8.64,8.64A8.66,8.66,0,0,0,223.76,94.41Z"/><path class="cls-4" d="M109.19,119.2a3.26,3.26,0,0,1-.86-.13,3,3,0,0,1-2-3.68,42.72,42.72,0,0,0-40.87-55,2.95,2.95,0,0,1,0-5.89A48.62,48.62,0,0,1,112,117.1,3,3,0,0,1,109.19,119.2Z"/><path class="cls-4" d="M65.5,151.62a48.63,48.63,0,0,1-48.57-48.57,2.95,2.95,0,0,1,5.89,0A42.73,42.73,0,0,0,65.5,145.73a2.95,2.95,0,1,1,0,5.89Z"/><path class="cls-4" d="M95.51,140.37a2.94,2.94,0,0,1-1.94-5.16,43,43,0,0,0,9.49-11.86,2.94,2.94,0,1,1,5.18,2.8,48.56,48.56,0,0,1-10.79,13.49A2.93,2.93,0,0,1,95.51,140.37Z"/><path class="cls-2" d="M225.62,98.33,184.17,16.65H213c1.61,2.58,4.27,8.78-1.08,16A3.68,3.68,0,1,0,217.86,37c8.32-11.22,3.52-22.23-.18-26.48a3.66,3.66,0,0,0-2.78-1.27H178.17a3.69,3.69,0,0,0-3.28,5.35l8.43,16.6h-70l-8.58-16.91h16.4a3.68,3.68,0,0,0,0-7.36H89.26a3.68,3.68,0,1,0,0,7.36h7.3c0,.1.06.21.11.31l10.17,20-40,59.84a9.1,9.1,0,0,0-1.29-.1,8.64,8.64,0,1,0,7.81,12.33h55.45a3.69,3.69,0,0,0,0-7.37H73.31c-.13-.26-.27-.5-.42-.74L110.66,42.2l30.18,59.46.07.11a4,4,0,0,0,.46.65l.1.12a3.68,3.68,0,0,0,.6.51l.08,0a4.22,4.22,0,0,0,.68.32c.1,0,.18.09.27.12a3.93,3.93,0,0,0,1,.15,3.7,3.7,0,0,0,.87-.11c.09,0,.18-.07.27-.1a4.76,4.76,0,0,0,.53-.19l0,0a1.48,1.48,0,0,0,.13-.08,3.72,3.72,0,0,0,.56-.39l.18-.17a3.63,3.63,0,0,0,.41-.47l.09-.11,41-61.23,30.89,60.85a3.68,3.68,0,0,0,3.28,2,3.73,3.73,0,0,0,1.67-.4A3.68,3.68,0,0,0,225.62,98.33Zm-81.06-5.61L117.1,38.61h63.68Z"/><path class="cls-4" d="M181.89,124.29a3,3,0,0,1-2.71-1.78,48.26,48.26,0,0,1-4-19.32,2.94,2.94,0,0,1,2.95-2.94h0a2.94,2.94,0,0,1,2.94,2.94,42.39,42.39,0,0,0,3.51,17,3,3,0,0,1-1.53,3.87A2.9,2.9,0,0,1,181.89,124.29Z"/><path class="cls-4" d="M223.76,151.76a48.71,48.71,0,0,1-39.56-20.38A2.95,2.95,0,1,1,189,128a42.78,42.78,0,0,0,34.76,17.91c1.51,0,3.05-.08,4.56-.23a2.95,2.95,0,1,1,.61,5.86C227.21,151.67,225.48,151.76,223.76,151.76Z"/><path class="cls-4" d="M264.4,85.35a3,3,0,0,1-2.63-1.6,42.54,42.54,0,0,0-38-23.23,2.95,2.95,0,0,1,0-5.89A48.44,48.44,0,0,1,267,81.06a2.94,2.94,0,0,1-2.62,4.29Z"/><path class="cls-5" d="M157.33,103.05A14.29,14.29,0,1,1,143,88.77,14.28,14.28,0,0,1,157.33,103.05Z"/><path class="cls-2" d="M143,121a18,18,0,1,1,18-18A18,18,0,0,1,143,121Zm0-28.56a10.6,10.6,0,1,0,10.61,10.6A10.62,10.62,0,0,0,143,92.45Z"/><path class="cls-2" d="M209.73,194.86a4.66,4.66,0,0,1-2.58-.79l-19-12.72-19,12.72a4.62,4.62,0,0,1-5.16,0l-19-12.72-19,12.72a4.64,4.64,0,0,1-5.17,0l-19-12.72-19,12.72a4.64,4.64,0,0,1-5.17,0L56.1,179.62a4.65,4.65,0,0,1,5.17-7.72l19,12.72,19-12.72a4.67,4.67,0,0,1,5.17,0l19,12.72,19-12.72a4.67,4.67,0,0,1,5.17,0l19,12.72,19-12.72a4.67,4.67,0,0,1,5.17,0l19,12.72,19-12.72a4.65,4.65,0,0,1,5.17,7.72l-21.59,14.45A4.66,4.66,0,0,1,209.73,194.86Z"/></svg>