<svg id="Layer_1" data-name="Layer 1" xmlns="http://www.w3.org/2000/svg" viewBox="0 0 200 200"><defs><style>.cls-1{fill:#f79a6d;}.cls-2{fill:#fff;}.cls-3{fill:#231f20;}.cls-4{stroke:#000;stroke-miterlimit:10;stroke-width:0.25px;}.cls-5{fill:#ea5f29;}</style></defs><path class="cls-1" d="M160.46,132.11c-1.93-30.8-27-62.5-43-76.18h0C114,39.61,134.86,27.6,134.86,27.6a32.52,32.52,0,0,0-17.33-16.75l-2.3,9.43C86.93,3,60,31.45,60,31.45c31,9.24,25.46,27.26,25.46,27.26h0C66.53,75.79,46.89,111.6,46.89,138c0,36.95,33.61,35.67,63.91,35.67S162.76,169,160.46,132.11Z"/><path class="cls-2" d="M117.13,129.3q-3.43,3.54-9.79,4.68v6.3h-8v-6a37.8,37.8,0,0,1-8.15-1.3,24.72,24.72,0,0,1-6.44-2.67l4.31-9.76a28.1,28.1,0,0,0,6.36,2.64,25,25,0,0,0,6.76,1,10.47,10.47,0,0,0,4-.54,1.74,1.74,0,0,0,1.19-1.62c0-.83-.52-1.45-1.56-1.87a32.81,32.81,0,0,0-5.14-1.36A58.88,58.88,0,0,1,93,116.69a13,13,0,0,1-5.34-3.63,9.86,9.86,0,0,1-2.27-6.84A11.62,11.62,0,0,1,89,97.65q3.6-3.59,10.36-4.54V86.92h8V93a28.59,28.59,0,0,1,11.53,3.3l-4,9.7A24.75,24.75,0,0,0,103.77,103q-5.17,0-5.17,2.5c0,.79.51,1.39,1.53,1.79a33.13,33.13,0,0,0,5.05,1.27,52,52,0,0,1,7.67,2,13.3,13.3,0,0,1,5.42,3.61,9.66,9.66,0,0,1,2.3,6.81A11.59,11.59,0,0,1,117.13,129.3Z"/><path class="cls-3" d="M104.34,140.33h-8a2,2,0,0,1-2-2.05v-4.12a37.92,37.92,0,0,1-6.65-1.23,26.81,26.81,0,0,1-7-2.9,2.06,2.06,0,0,1-.79-2.57l4.32-9.76a2,2,0,0,1,1.24-1.13,2.1,2.1,0,0,1,1.66.18A25.45,25.45,0,0,0,93,119.19a22.84,22.84,0,0,0,6.2.92,12.94,12.94,0,0,0,2.54-.19,36.32,36.32,0,0,0-4.49-1.15,59.62,59.62,0,0,1-8-2.15,15.13,15.13,0,0,1-6.16-4.19,11.83,11.83,0,0,1-2.8-8.21,13.7,13.7,0,0,1,4.21-10,18.92,18.92,0,0,1,9.76-4.81V84.92a2,2,0,0,1,2-2h8a2,2,0,0,1,2,2v4.24a29.49,29.49,0,0,1,10.49,3.34,2,2,0,0,1,.88,2.57l-4,9.71a2,2,0,0,1-2.82,1,22.75,22.75,0,0,0-10.14-2.73,8.4,8.4,0,0,0-2.83.35,29.79,29.79,0,0,0,4.63,1.15,53.67,53.67,0,0,1,8,2,15.33,15.33,0,0,1,6.25,4.15,11.71,11.71,0,0,1,2.84,8.2,13.6,13.6,0,0,1-4,9.74h0a18.64,18.64,0,0,1-9.22,4.93v4.63A2,2,0,0,1,104.34,140.33Zm-6-4.1h3.9V132a2.06,2.06,0,0,1,1.69-2c3.79-.68,6.71-2.05,8.68-4.09h0a9.53,9.53,0,0,0,2.86-6.89,7.66,7.66,0,0,0-1.76-5.42,11.16,11.16,0,0,0-4.6-3.06,50.75,50.75,0,0,0-7.35-1.88,34.38,34.38,0,0,1-5.42-1.38,3.94,3.94,0,0,1-2.84-3.7c0-2.08,1.25-4.55,7.22-4.55a25.3,25.3,0,0,1,10,2.24l2.48-6A28.39,28.39,0,0,0,104.15,93a2,2,0,0,1-1.86-2V87h-3.9v4.14a2.05,2.05,0,0,1-1.76,2c-4,.57-7.14,1.91-9.21,4a9.58,9.58,0,0,0-3,7.12,7.8,7.8,0,0,0,1.75,5.47,11,11,0,0,0,4.51,3.08,57.26,57.26,0,0,0,7.38,2,35.29,35.29,0,0,1,5.48,1.46,4,4,0,0,1,2.85,3.78,3.77,3.77,0,0,1-2.39,3.49,12.06,12.06,0,0,1-4.82.72,27.07,27.07,0,0,1-7.32-1.07,31.84,31.84,0,0,1-4.81-1.78l-2.67,6A26.73,26.73,0,0,0,88.74,129a36.31,36.31,0,0,0,7.71,1.24,2,2,0,0,1,1.94,2Zm15.74-8.93h0Z"/><path class="cls-4" d="M126.51,150.13a.27.27,0,0,0,.14-.49.67.67,0,0,0-.14-.09l-.39.32v.25A1.71,1.71,0,0,0,126.51,150.13Z"/><path class="cls-4" d="M126.12,153.24v1a1.11,1.11,0,0,0,.37-.08.43.43,0,0,0,.12-.28C126.67,153.48,126.43,153.33,126.12,153.24Z"/><path class="cls-4" d="M126.42,157.07c0-.09-.2-.15-.3-.22v.82c.09,0,.26,0,.27-.07A1.19,1.19,0,0,0,126.42,157.07Z"/><path class="cls-4" d="M126.12,161.77a.34.34,0,0,0,.42-.12.26.26,0,0,0,0-.15c0-.2-.25-.15-.39-.2l-.07,0Z"/><path class="cls-4" d="M153.73,142.58c.55,0,.67-.33.71-.77a3.79,3.79,0,0,0-.29-.26,2.75,2.75,0,0,0-.41-.18l-.38.61Z"/><path class="cls-4" d="M146.45,122.64a2.52,2.52,0,0,0,0-.55.37.37,0,0,0-.58-.21c-.19.15-.34.34-.56.55C145.9,123,145.9,123,146.45,122.64Z"/><path class="cls-4" d="M148,116.85c.35,0,.5-.16.49-.6a.83.83,0,0,0,0-.2.38.38,0,0,0-.62-.22,1,1,0,0,0-.3.36A.46.46,0,0,0,148,116.85Z"/><path class="cls-4" d="M137.85,162.08l.32,0a.64.64,0,0,0,.55-.41c0-.23-.15-.32-.33-.41-.41-.21-.56-.17-.78.23a4.53,4.53,0,0,0-.17.45Z"/><path class="cls-4" d="M129.06,152c-.06-.18-.12-.39-.21-.65a2.1,2.1,0,0,0-.44-.1c-.25,0-.55.35-.44.55a1,1,0,0,0,.45.44A.47.47,0,0,0,129.06,152Z"/><path class="cls-4" d="M151.85,120.78a4.73,4.73,0,0,0,.53-.23,2.36,2.36,0,0,0-.06-.5.78.78,0,0,0-.28-.29.28.28,0,0,0-.22,0,.91.91,0,0,0-.4.75A.41.41,0,0,0,151.85,120.78Z"/><path class="cls-4" d="M149.81,118.81l.26.16a.62.62,0,0,0,.49-.5c0-.28-.18-.43-.44-.59-.32.14-.67.19-.67.65Z"/><path class="cls-4" d="M134.11,162.09c.22-.09.43-.22.73-.38l-.49-.51c-.53.07-.75.29-.79.68A.39.39,0,0,0,134.11,162.09Z"/><path class="cls-4" d="M151.55,124.54a3.47,3.47,0,0,0,.72,0,.39.39,0,0,0,.23-.21.87.87,0,0,0,0-.33l-.87-.19a3.24,3.24,0,0,0-.26.25C151.22,124.26,151.3,124.51,151.55,124.54Z"/><path class="cls-4" d="M138.6,86.73a.37.37,0,0,0-.28-.43.44.44,0,0,0-.49.18,2.05,2.05,0,0,0-.19.4c.41.45.41.45.94.2A3.49,3.49,0,0,1,138.6,86.73Z"/><path class="cls-4" d="M136.29,164c.16-.08.31-.19.54-.33a3.37,3.37,0,0,0-.23-.44.38.38,0,0,0-.7.08.94.94,0,0,0-.05.47A.3.3,0,0,0,136.29,164Z"/><path class="cls-4" d="M150,122.76a3.77,3.77,0,0,0,.39-.11,2.36,2.36,0,0,0-.24-.66.6.6,0,0,0-.41-.18.32.32,0,0,0-.26.13A.54.54,0,0,0,150,122.76Z"/><path class="cls-4" d="M144,124.73c.26,0,.45-.14.46-.35a.65.65,0,0,0-.53-.6c-.22,0-.42.2-.43.47A.44.44,0,0,0,144,124.73Z"/><path class="cls-4" d="M155.94,135.58a.48.48,0,0,0-.59.39.44.44,0,0,0,.37.52.67.67,0,0,0,.59-.46A.42.42,0,0,0,155.94,135.58Z"/><path class="cls-4" d="M130.36,74.56a.66.66,0,0,0-.54.37c.09.17.17.36.26.55a.51.51,0,0,0,.17,0,.43.43,0,0,0,.47-.51A.42.42,0,0,0,130.36,74.56Z"/><path class="cls-4" d="M132,148.32a.54.54,0,0,0,.48-.36.48.48,0,0,0-.26-.54.43.43,0,0,0-.56.19,1.43,1.43,0,0,0-.13.28C131.89,148.29,131.92,148.32,132,148.32Z"/><path class="cls-4" d="M142.18,98.1a.34.34,0,0,0-.28,0,.75.75,0,0,0-.24.65.43.43,0,0,0,.38.48l.53-.77A2.55,2.55,0,0,0,142.18,98.1Z"/><path class="cls-4" d="M153.68,122.66a.36.36,0,0,0,.23,0,.71.71,0,0,0,.43-.59.48.48,0,0,0-.53-.4c-.29.09-.27.37-.34.59S153.55,122.57,153.68,122.66Z"/><path class="cls-4" d="M144.12,152.27a1.57,1.57,0,0,0,.26-.25c.19-.27.15-.43-.14-.57a.73.73,0,0,0-.3-.11.36.36,0,0,0-.37.27.47.47,0,0,0,.08.37A2.35,2.35,0,0,0,144.12,152.27Z"/><path class="cls-4" d="M140.31,88.41c-.5,0-.6.3-.69.6.49.3.58.35.81.24s.18-.24.27-.38Z"/><path class="cls-4" d="M153.85,125.63a.36.36,0,0,0-.25.18,1,1,0,0,0-.08.29c0,.12,0,.23,0,.33a.31.31,0,0,0,.52.13,1.21,1.21,0,0,0,.21-.24A.53.53,0,0,0,153.85,125.63Z"/><path class="cls-4" d="M140.58,104.59c-.18-.2-.12-.62-.51-.62,0,0-.07,0-.1,0,.06.28.12.56.17.85A1.11,1.11,0,0,0,140.58,104.59Z"/><path class="cls-4" d="M136.13,140.47a.37.37,0,0,0,.32-.31,2.09,2.09,0,0,0,0-.47,5.14,5.14,0,0,0-.56,0c-.33.07-.41.31-.22.6S135.94,140.49,136.13,140.47Z"/><path class="cls-4" d="M148.15,132.76l.24-.68s0-.05,0-.07a.77.77,0,0,0-.14-.27.38.38,0,0,0-.62.23C147.57,132.34,147.73,132.57,148.15,132.76Z"/><path class="cls-4" d="M155.78,123.77a.53.53,0,0,0-.49.46.39.39,0,0,0,.21.47l.08,0a.64.64,0,0,0,.57-.57A.44.44,0,0,0,155.78,123.77Z"/><path class="cls-4" d="M138.48,145.68c-.08-.16-.17-.29-.37-.23a.41.41,0,0,0-.31.34c-.06.34.09.56.45.73l.35-.58C138.55,145.82,138.51,145.75,138.48,145.68Z"/><path class="cls-4" d="M134.3,142.45l.47-.54c-.09-.28-.2-.46-.47-.43h0l-.4.51C133.92,142.17,134.09,142.29,134.3,142.45Z"/><path class="cls-4" d="M143.86,127.88c-.27.2-.18.46-.09.78.42,0,.73-.11.85-.62C144.36,127.85,144.13,127.68,143.86,127.88Z"/><path class="cls-4" d="M153.57,130.49l.22.11c.24.09.45-.06.52-.37a.36.36,0,0,0-.33-.39h-.2c-.26,0-.37.08-.4.26A.34.34,0,0,0,153.57,130.49Z"/><path class="cls-4" d="M148.56,151.91c-.09-.17-.19-.36-.32-.58-.32.12-.58.14-.61.47s.15.33.32.41S148.39,152.14,148.56,151.91Z"/><path class="cls-4" d="M151.75,148.29a.41.41,0,0,0,.46,0c.12-.1.21-.23.39-.41l-.35-.22-.22-.09a.39.39,0,0,0-.28.73Z"/><path class="cls-4" d="M138,141.52a.33.33,0,0,0-.19.22.6.6,0,0,0,.13.6.55.55,0,0,0,.65,0,1,1,0,0,0-.31-.75A.32.32,0,0,0,138,141.52Z"/><path class="cls-4" d="M146.14,133.69a.93.93,0,0,0-.73.47c.11.27.27.42.52.4s.42-.21.54-.48Z"/><path class="cls-4" d="M146.05,118.82c.44-.44.5-.62.3-.78s-.49-.18-.58,0a.73.73,0,0,0-.08.45C145.73,118.61,145.9,118.69,146.05,118.82Z"/><path class="cls-4" d="M147.7,101a.58.58,0,0,0,.5,0c-.1-.24-.21-.48-.32-.72C147.63,100.36,147.64,100.51,147.7,101Z"/><path class="cls-4" d="M144.08,96.29c-.25.12-.28.38-.37.59a.32.32,0,0,0,.12.26,1.24,1.24,0,0,0,.33.15C144.53,96.68,144.53,96.66,144.08,96.29Z"/><path class="cls-4" d="M155.48,120.32v0Z"/><path class="cls-4" d="M151.62,132.42a1.38,1.38,0,0,0,.25.17.67.67,0,0,0,.5-.61l-.31-.32c-.17,0-.23,0-.27.05C151.32,131.94,151.29,132.07,151.62,132.42Z"/><path class="cls-4" d="M151.79,151.52c-.11.11-.21.23-.4.45l.45.2c.1-.24.2-.47.31-.71A.28.28,0,0,0,151.79,151.52Z"/><path class="cls-4" d="M142.63,130.29a.32.32,0,0,0,0-.29.47.47,0,0,0-.34-.14.68.68,0,0,0-.52.72l.44.06A.4.4,0,0,0,142.63,130.29Z"/><path class="cls-4" d="M145.9,130.57a.38.38,0,0,0,.36,0,.63.63,0,0,0,.07-.86,3.23,3.23,0,0,0-.49.18A.41.41,0,0,0,145.9,130.57Z"/><path class="cls-4" d="M150.33,149.4c-.53-.07-.58.35-.77.65.28.13.48.36.81.19A1.35,1.35,0,0,0,150.33,149.4Z"/><path class="cls-4" d="M147.9,136.58a3.11,3.11,0,0,0,.36-.53.51.51,0,0,0-.06-.38c-.11-.15-.3-.11-.45,0a.37.37,0,0,0-.2.58A3.31,3.31,0,0,0,147.9,136.58Z"/><path class="cls-4" d="M137.59,157.93a.89.89,0,0,0,.8,0c.05-.26.08-.47-.11-.63a.36.36,0,0,0-.22-.09c-.23,0-.38.13-.5.52C137.55,157.81,137.58,157.87,137.59,157.93Z"/><path class="cls-4" d="M144.34,112.12c-.13-.08-.27-.19-.45-.08a.4.4,0,0,0-.19.42,3.37,3.37,0,0,0,.14.49,5.1,5.1,0,0,0,.57-.35A.3.3,0,0,0,144.34,112.12Z"/><path class="cls-4" d="M139.76,96.55c0,.1,0,.21,0,.42a1.76,1.76,0,0,0,.53,0,.43.43,0,0,0,.23-.29.38.38,0,0,0-.35-.45C139.91,96.16,139.74,96.31,139.76,96.55Z"/><path class="cls-4" d="M140.22,101.11l.35-.5a2.11,2.11,0,0,0-.18-.24c-.21-.2-.36-.23-.48-.11a.48.48,0,0,0-.1.59A1.53,1.53,0,0,0,140.22,101.11Z"/><path class="cls-4" d="M142.53,106.47a.4.4,0,0,0-.24-.38.37.37,0,0,0-.44.09,1.37,1.37,0,0,0-.13.2c-.15.28,0,.47.33.47a.88.88,0,0,0,.2,0A.37.37,0,0,0,142.53,106.47Z"/><path class="cls-4" d="M142.16,150.29a2.05,2.05,0,0,0,.32-.34.33.33,0,0,0-.25-.49.45.45,0,0,0-.48.22.43.43,0,0,0,.16.5A2.22,2.22,0,0,0,142.16,150.29Z"/><path class="cls-4" d="M130.34,153.36c-.23-.08-.34.11-.47.24a1.79,1.79,0,0,0-.12.21,2.14,2.14,0,0,0,.27.31.31.31,0,0,0,.53-.19C130.59,153.67,130.51,153.42,130.34,153.36Z"/><path class="cls-4" d="M140.12,144.55c.18,0,.28-.21.28-.52s-.16-.48-.43-.39-.22.22-.22.38C139.75,144.36,139.91,144.58,140.12,144.55Z"/><path class="cls-4" d="M152.41,128.23c-.18-.2-.13-.51-.48-.62l-.46.48C151.9,128.58,151.9,128.58,152.41,128.23Z"/><path class="cls-4" d="M144.08,131.77a.28.28,0,0,0-.36.35,1.07,1.07,0,0,0,.29.38.33.33,0,0,0,.29,0,.73.73,0,0,0,.2-.25A.5.5,0,0,0,144.08,131.77Z"/><path class="cls-4" d="M145.62,158c.14.29.36.26.69.16a1.77,1.77,0,0,0-.07-.5.36.36,0,0,0-.54-.14C145.53,157.58,145.51,157.74,145.62,158Z"/><path class="cls-4" d="M127.87,159.72l.51.27.41-.46C128.29,159.08,128.15,159.12,127.87,159.72Z"/><path class="cls-4" d="M147.94,119.93c-.22,0-.42.29-.37.47a.44.44,0,0,0,.51.36l.41-.33C148.31,120.08,148.21,119.87,147.94,119.93Z"/><path class="cls-4" d="M134.17,145.46a.59.59,0,0,0-.44.53l.75.18C134.67,145.81,134.67,145.81,134.17,145.46Z"/><path class="cls-4" d="M132.17,144.39c.26,0,.38-.21.35-.52a.42.42,0,0,0-.06-.19c-.17.2-.34.41-.52.6A.33.33,0,0,0,132.17,144.39Z"/><path class="cls-4" d="M137.93,137.69a.46.46,0,0,0-.26.57l.48.27a2.79,2.79,0,0,0,.26-.52.31.31,0,0,0-.11-.27A.46.46,0,0,0,137.93,137.69Z"/><path class="cls-4" d="M144.1,148.35a.4.4,0,0,0,.39-.32.41.41,0,0,0-.34-.46.43.43,0,0,0-.45.37A.42.42,0,0,0,144.1,148.35Z"/><path class="cls-4" d="M142.09,146.21a.39.39,0,0,0,.44-.36.42.42,0,0,0-.39-.42.43.43,0,0,0-.41.41A.41.41,0,0,0,142.09,146.21Z"/><path class="cls-4" d="M140.5,136a.44.44,0,0,0-.42-.4.3.3,0,0,0-.32.37.41.41,0,0,0,.4.42A.41.41,0,0,0,140.5,136Z"/><path class="cls-4" d="M143.72,139.75a.52.52,0,0,0,.3.53c.21.09.36,0,.47-.27l-.28-.58C143.92,139.46,143.72,139.52,143.72,139.75Z"/><path class="cls-4" d="M150.18,137.72a.31.31,0,0,0-.44,0,.44.44,0,0,0,0,.64c.13.14.29.13.49-.06a1.7,1.7,0,0,0,.21-.28C150.33,137.93,150.27,137.81,150.18,137.72Z"/><path class="cls-4" d="M148.13,144.43c.1-.12.14-.15.16-.2.18-.36.08-.59-.29-.61-.14,0-.28,0-.33.16s-.08.33.08.44A3.24,3.24,0,0,0,148.13,144.43Z"/><path class="cls-4" d="M146.4,141.86a3.28,3.28,0,0,0-.42-.4l-.56.55a6.71,6.71,0,0,0,.74.24c.07,0,.19-.09.25-.17A.24.24,0,0,0,146.4,141.86Z"/><path class="cls-4" d="M146.6,126.28a.39.39,0,0,0-.38-.38.44.44,0,0,0-.51.29c0,.18.17.35.46.34a.65.65,0,0,0,.3-.09C146.53,126.41,146.57,126.32,146.6,126.28Z"/><path class="cls-4" d="M142.17,126.52a1.07,1.07,0,0,0,.32-.12,2.22,2.22,0,0,0-.17-.46.38.38,0,0,0-.27-.1c-.26,0-.45.23-.45.4S141.85,126.56,142.17,126.52Z"/><path class="cls-4" d="M146.31,114.58a1,1,0,0,0,.12-.27.7.7,0,0,0-.12-.15c-.21-.17-.42-.17-.55,0a.48.48,0,0,0,.12.69C146,114.9,146.16,114.82,146.31,114.58Z"/><path class="cls-4" d="M144.48,116.32c-.09-.06-.19-.2-.32-.24a.38.38,0,1,0-.07.76C144.26,116.85,144.45,116.61,144.48,116.32Z"/><path class="cls-4" d="M153.42,145.88a.3.3,0,0,0,.06.29,1.53,1.53,0,0,0,.4.21l.27-.18.12-.41a5.12,5.12,0,0,0-.63-.1A.3.3,0,0,0,153.42,145.88Z"/><path class="cls-4" d="M147.94,147.68c-.14.11-.33.23-.24.45s.27.24.47.22a1.67,1.67,0,0,0,.24,0c0-.14,0-.24,0-.34a.3.3,0,0,0,0-.16A.28.28,0,0,0,147.94,147.68Z"/><path class="cls-4" d="M130.44,146.19a.42.42,0,0,0,.23-.27s0-.12-.08-.18l-.44.44A.41.41,0,0,0,130.44,146.19Z"/><path class="cls-4" d="M154.34,118.53a2,2,0,0,0-.11-.25c-.21-.34-.36-.34-.57,0a1,1,0,0,0-.09.25C153.83,118.82,154.06,118.83,154.34,118.53Z"/><path class="cls-4" d="M141.74,118.74c.17.12.31,0,.42-.1a3.18,3.18,0,0,0,.26-.33c-.17-.12-.26-.23-.38-.26a.35.35,0,0,0-.36.12c0,.17,0,.34,0,.5S141.71,118.72,141.74,118.74Z"/><path class="cls-4" d="M138.57,149.84a.61.61,0,0,0-.27-.28,1.07,1.07,0,0,0-.39,0c0,.27.06.47.09.69C138.53,150.15,138.66,150.05,138.57,149.84Z"/><path class="cls-4" d="M144.21,143.6c-.05-.08-.23-.11-.35-.09s-.14.14-.16.24a4,4,0,0,0,0,.5l.68-.08A2.28,2.28,0,0,0,144.21,143.6Z"/><path class="cls-4" d="M142.12,134.37c.2,0,.29-.25.24-.52a.35.35,0,0,0-.18-.21.36.36,0,0,0-.4.19,3.57,3.57,0,0,0-.2.49A1.6,1.6,0,0,0,142.12,134.37Z"/><path class="cls-4" d="M151.91,112.14c-.09-.07-.29,0-.32.16s-.06.32.11.44.39.18.65-.15A6.25,6.25,0,0,0,151.91,112.14Z"/><path class="cls-4" d="M142,103a.32.32,0,0,0,.35-.25c0-.07,0-.15,0-.28s-.1-.24-.19-.26-.23.07-.32.15a.56.56,0,0,0-.13.28A.36.36,0,0,0,142,103Z"/><path class="cls-4" d="M150.37,141.88c-.05,0-.12-.14-.2-.17a.46.46,0,0,0-.56.49.32.32,0,0,0,.17.22A.54.54,0,0,0,150.37,141.88Z"/><path class="cls-4" d="M142.33,142.1c-.08-.21-.21-.39-.44-.4s-.31.17-.32.5a3,3,0,0,0,.49.21C142.2,142.45,142.38,142.23,142.33,142.1Z"/><path class="cls-4" d="M155.24,140a.36.36,0,0,0,.23.26,1,1,0,0,0,.3,0l.09-.42a.87.87,0,0,0-.38-.11C155.4,139.73,155.24,139.91,155.24,140Z"/><path class="cls-4" d="M145.9,110.75a6.15,6.15,0,0,0,.67-.27,6,6,0,0,0-.59-.31.27.27,0,0,0-.23,0,.78.78,0,0,0-.21.31C145.51,110.62,145.77,110.79,145.9,110.75Z"/><path class="cls-4" d="M141.7,90.52c0,.1-.09.2-.13.29.32.32.43.28.78-.25l-.46-.26A2.35,2.35,0,0,0,141.7,90.52Z"/><path class="cls-4" d="M132.5,76.79a.37.37,0,0,0-.36-.26c-.11,0-.21.14-.29.23a1.31,1.31,0,0,0-.12.34c.22,0,.4,0,.58,0A.24.24,0,0,0,132.5,76.79Z"/><path class="cls-4" d="M128.18,163.2a7.2,7.2,0,0,0-.53.5.78.78,0,0,0,.75-.06c.16-.1.23-.27.13-.39A.23.23,0,0,0,128.18,163.2Z"/><path class="cls-4" d="M149.65,153.58a.31.31,0,0,0,0,.23.4.4,0,0,0,.66.16c.06,0,.08-.13.13-.24a1.3,1.3,0,0,0-.31-.24A.37.37,0,0,0,149.65,153.58Z"/><path class="cls-4" d="M149.86,114.1a.71.71,0,0,0,0,.68c.3,0,.37-.25.48-.46a.21.21,0,0,0-.1-.33A.25.25,0,0,0,149.86,114.1Z"/><path class="cls-4" d="M140.05,148.19c.21,0,.33-.06.35-.23s-.08-.39-.28-.4-.35.09-.36.32S139.84,148.17,140.05,148.19Z"/><path class="cls-4" d="M142.36,122.38a.35.35,0,1,0-.7,0c0,.21.19.23.35.24S142.36,122.52,142.36,122.38Z"/><path class="cls-4" d="M134.58,153.94a3.08,3.08,0,0,0-.3-.41.26.26,0,0,0-.42.17,1.83,1.83,0,0,0,0,.38h.55S134.5,154,134.58,153.94Z"/><path class="cls-4" d="M145.84,106.68a2.63,2.63,0,0,0,.35.15.5.5,0,0,0,0-.61.27.27,0,0,0-.41,0A.29.29,0,0,0,145.84,106.68Z"/><path class="cls-4" d="M148,108.81c.05,0,.19-.1.22-.2s-.13-.39-.28-.42a.39.39,0,0,0-.4.31C147.5,108.66,147.68,108.8,148,108.81Z"/><path class="cls-4" d="M149.63,130.22c0,.06.08.17.14.25a.32.32,0,0,0,.14.08.29.29,0,1,0,.23-.51c-.08,0-.16,0-.28-.06S149.67,130.12,149.63,130.22Z"/><path class="cls-4" d="M137.65,91a.76.76,0,0,0,.76,0l0-.62C138.1,90.68,137.61,90.47,137.65,91Z"/><path class="cls-4" d="M153.84,138.34a.35.35,0,0,0,.31-.32.37.37,0,0,0-.42-.29.39.39,0,0,0-.32.32A.38.38,0,0,0,153.84,138.34Z"/><path class="cls-4" d="M146.28,138.07a.37.37,0,0,0-.37-.35c-.19,0-.4.21-.37.36a.41.41,0,0,0,.37.26A.39.39,0,0,0,146.28,138.07Z"/><path class="cls-4" d="M136.61,84.92a.36.36,0,0,0-.44-.26c-.19.08-.24.27-.16.64l.38-.1C136.55,85.16,136.64,85.08,136.61,84.92Z"/><path class="cls-4" d="M154.12,134.06a.18.18,0,0,0-.17-.28.48.48,0,0,0-.56.34C153.81,134.39,153.93,134.38,154.12,134.06Z"/><path class="cls-4" d="M149.83,146.21a.34.34,0,0,0,.38-.31.52.52,0,0,0-.29-.42c-.15,0-.29.16-.32.39S149.67,146.2,149.83,146.21Z"/><path class="cls-4" d="M148.4,104.63c0-.37-.32-.4-.53-.49a.21.21,0,0,0-.19.09.24.24,0,0,0,0,.23C147.83,104.75,148.08,104.76,148.4,104.63Z"/><path class="cls-4" d="M134.26,149.46a.27.27,0,0,0-.23.29c0,.21.17.43.33.37s.22-.2.29-.26C134.64,149.6,134.44,149.42,134.26,149.46Z"/><path class="cls-4" d="M134,157.36a1.54,1.54,0,0,0-.18.47h.61a1.05,1.05,0,0,0,.05-.26c0-.1-.06-.26-.12-.28A.49.49,0,0,0,134,157.36Z"/><path class="cls-4" d="M143.72,120.19a2.66,2.66,0,0,0,0,.4h.56c.09-.33,0-.5-.25-.57A.23.23,0,0,0,143.72,120.19Z"/><path class="cls-4" d="M148,139.74a.3.3,0,0,0-.29,0,.22.22,0,0,0,0,.35,1.13,1.13,0,0,0,.27.19c.2,0,.34-.13.29-.26A.69.69,0,0,0,148,139.74Z"/><path class="cls-4" d="M136.21,151.5a.33.33,0,0,0-.22.38.22.22,0,0,0,.26.23.32.32,0,0,0,.34-.27C136.61,151.67,136.4,151.49,136.21,151.5Z"/><path class="cls-4" d="M130.54,149.74a.22.22,0,0,0-.3-.19,1.2,1.2,0,0,0-.29.26.24.24,0,0,0,0,.23.43.43,0,0,0,.29.1A.34.34,0,0,0,130.54,149.74Z"/><path class="cls-4" d="M132.24,151.42c-.21,0-.38.22-.33.37s.24.2.39.16a1.23,1.23,0,0,0,.37-.21A.38.38,0,0,0,132.24,151.42Z"/><path class="cls-4" d="M143.49,92.89c0,.15.19.17.33.17s.25,0,.46,0l0,0-.51-.59C143.61,92.63,143.49,92.76,143.49,92.89Z"/><path class="cls-4" d="M135.9,143.83c-.05.08-.08.27,0,.29a.52.52,0,0,0,.36.09.3.3,0,0,0,.22-.38c0-.08-.11-.15-.19-.26A1.86,1.86,0,0,0,135.9,143.83Z"/><path class="cls-4" d="M142.28,153.47a.3.3,0,0,0-.21.38c0,.1.13.18.25.32.14-.15.29-.24.33-.37S142.47,153.46,142.28,153.47Z"/><path class="cls-4" d="M140,132a1.29,1.29,0,0,0-.23.27,1.2,1.2,0,0,0,.35.21.3.3,0,0,0,.25-.1.58.58,0,0,0,0-.37C140.23,131.92,140.08,132,140,132Z"/><path class="cls-4" d="M136,148c.28,0,.46-.2.38-.36a.39.39,0,0,0-.29-.21.31.31,0,0,0-.27.41C135.87,147.94,136,148,136,148Z"/><path class="cls-4" d="M155.79,127.87a1.56,1.56,0,0,0-.1.45.2.2,0,0,0,.08.12.32.32,0,0,0,.22,0c.23-.18.2-.41.06-.68C156,127.78,155.82,127.8,155.79,127.87Z"/><path class="cls-4" d="M137.81,153.87a.27.27,0,0,0,.19.2.33.33,0,0,0,.4-.35c-.06-.05-.14-.17-.25-.21S137.79,153.67,137.81,153.87Z"/><path class="cls-4" d="M153.62,114.64l0-.09-.05.08Z"/><path class="cls-4" d="M152,144.21c.13.06.35-.22.33-.43,0-.06-.09-.11-.12-.15-.24,0-.45.13-.43.3A.47.47,0,0,0,152,144.21Z"/><path class="cls-4" d="M155.57,132a.43.43,0,0,0,.24.27,1.37,1.37,0,0,0,.45,0,.78.78,0,0,1,0-.16,2.23,2.23,0,0,0-.33-.2C155.75,131.78,155.53,131.85,155.57,132Z"/><path class="cls-4" d="M138.22,83.18a.19.19,0,0,0,.16,0l-.31-.43a.21.21,0,0,0-.07.16A.49.49,0,0,0,138.22,83.18Z"/><path class="cls-4" d="M140.05,151.47a.35.35,0,0,0,0,.55s.1,0,.2,0a1.79,1.79,0,0,0,.13-.32.25.25,0,0,0-.19-.3A.2.2,0,0,0,140.05,151.47Z"/><path class="cls-4" d="M148.05,155.45c-.22,0-.3.16-.29.41a2.31,2.31,0,0,0,.37,0c.13,0,.28-.09.22-.25A.39.39,0,0,0,148.05,155.45Z"/><path class="cls-4" d="M146.13,154.07c.07,0,.12-.09.16-.12a.38.38,0,0,0-.28-.45s-.19.05-.19.08a1.65,1.65,0,0,0,.1.44S146.06,154.08,146.13,154.07Z"/><path class="cls-4" d="M152,135.87c-.19-.09-.27.09-.32.25a.88.88,0,0,0,0,.23h.56C152.17,136.12,152.14,135.92,152,135.87Z"/><path class="cls-4" d="M142.32,161.36a.21.21,0,0,0-.25.23,1.22,1.22,0,0,0,.2.32l.34-.26C142.49,161.52,142.42,161.4,142.32,161.36Z"/><path class="cls-4" d="M142.14,138.28a1.05,1.05,0,0,0,.21-.12c.11-.09.18-.21.05-.32a.33.33,0,0,0-.27-.07c-.15,0-.19.17-.12.32A1.62,1.62,0,0,0,142.14,138.28Z"/><path class="cls-4" d="M130.26,165.31a.14.14,0,0,0-.14,0s-.07.12-.05.14.22.28.36.45C130.56,165.51,130.52,165.4,130.26,165.31Z"/><path class="cls-4" d="M140.34,155.53a.31.31,0,0,0-.31.3c0,.08.16.21.19.2a2.31,2.31,0,0,0,.41-.28C140.49,155.64,140.42,155.55,140.34,155.53Z"/><path class="cls-4" d="M140.12,160c.15-.08.13-.22.11-.34a.74.74,0,0,0-.13-.21c-.22.05-.34.23-.29.37S140,160,140.12,160Z"/><path class="cls-4" d="M146.06,149.58a.16.16,0,0,0-.21.16c0,.07,0,.18.08.2s.35.11.45-.18A2.58,2.58,0,0,0,146.06,149.58Z"/><path class="cls-4" d="M148.15,124.52c.1,0,.17-.17.26-.26l-.36-.29c-.08.1-.15.16-.15.22S148,124.56,148.15,124.52Z"/><path class="cls-4" d="M146.3,98.75c0-.15-.08-.25-.25-.24s-.27.08-.28.22.11.22.26.23S146.29,98.92,146.3,98.75Z"/><path class="cls-4" d="M147.73,127.92a.37.37,0,0,0,.36.36c0-.05.12-.12.11-.17a.91.91,0,0,0-.17-.34s-.15,0-.21,0A.18.18,0,0,0,147.73,127.92Z"/><path class="cls-4" d="M141.82,110.23a.19.19,0,0,0,0,.14.36.36,0,0,0,.45.22s.08-.06.15-.12a1.68,1.68,0,0,0-.19-.24A.25.25,0,0,0,141.82,110.23Z"/><path class="cls-4" d="M145.73,102.65a.19.19,0,0,0,.14,0c.17,0,.26-.17.25-.42,0,0-.06-.07-.09-.11a.34.34,0,0,0-.15,0C145.66,102.37,145.62,102.53,145.73,102.65Z"/><path class="cls-4" d="M149.47,134.12a.22.22,0,0,0,.27.22c.09,0,.14-.13.26-.25a1.46,1.46,0,0,0-.36-.21S149.49,134,149.47,134.12Z"/><path class="cls-4" d="M143.74,135.85a.26.26,0,0,0-.16.15c-.05.2.08.3.25.35a.61.61,0,0,0,.25,0c0-.09,0-.16-.06-.23S143.9,135.82,143.74,135.85Z"/><path class="cls-4" d="M134.59,78.9c0-.11-.15-.26-.27-.21s-.21.15-.2.19.14.17.25.29A1.36,1.36,0,0,0,134.59,78.9Z"/><path class="cls-4" d="M143.87,100.87a.78.78,0,0,0,.22,0c.11-.16.12-.31-.05-.4s-.31,0-.4.19A2.31,2.31,0,0,0,143.87,100.87Z"/><path class="cls-4" d="M142.25,94.69s-.06-.1-.1-.1a.35.35,0,0,0-.39.3.24.24,0,0,0,.1.1A.38.38,0,0,0,142.25,94.69Z"/><path class="cls-4" d="M132.29,163.71c.06,0,.18-.12.2-.2s-.1-.15-.19-.27c-.1.12-.22.2-.21.26A.28.28,0,0,0,132.29,163.71Z"/><path class="cls-4" d="M145.74,146.14a2.6,2.6,0,0,0,.28-.24c-.1-.09-.16-.18-.21-.18a.21.21,0,0,0-.21.27A.29.29,0,0,0,145.74,146.14Z"/><path class="cls-4" d="M138.26,94.49c-.25-.29-.25-.29-.73,0Z"/><path class="cls-4" d="M134.26,83.2c.1,0,.23,0,.19-.17s-.15-.18-.29-.33c-.06.17-.14.27-.12.34A.37.37,0,0,0,134.26,83.2Z"/><path class="cls-4" d="M136.36,160s.07-.13.14-.24a1.5,1.5,0,0,0-.32-.15s-.14.09-.15.14S136.24,160,136.36,160Z"/><path class="cls-4" d="M140,139.74s-.18.11-.19.18a.3.3,0,0,0,.17.2c.07,0,.17,0,.35-.08A1.6,1.6,0,0,0,140,139.74Z"/><path class="cls-4" d="M149.66,106.38c.14.16.26.34.51.22,0,0,0,0,0-.06C150.07,106.31,149.88,106.32,149.66,106.38Z"/><path class="cls-4" d="M144.13,108.54s0-.05,0-.07a.24.24,0,0,0-.32-.15.21.21,0,0,0-.06.2.23.23,0,0,0,.34.07Z"/><path class="cls-4" d="M139.8,92.54c-.06,0-.11.1-.16.16a.19.19,0,0,0,0,.08s0,0,.06,0a1.4,1.4,0,0,0,.29,0s.06-.09.05-.13S139.92,92.5,139.8,92.54Z"/><path class="cls-4" d="M138.12,95.31s.11-.07.1-.07a1.74,1.74,0,0,0-.11-.18l-.13.11A1.85,1.85,0,0,0,138.12,95.31Z"/><path class="cls-4" d="M147.6,112.14c.05,0,.11.1.16.1s.11-.07.21-.13c-.1-.06-.17-.12-.22-.11S147.65,112.09,147.6,112.14Z"/><path class="cls-4" d="M143.65,104.65c.1,0,.21-.06.18-.18s-.06-.07-.11-.13a1.05,1.05,0,0,0-.14.2S143.61,104.63,143.65,104.65Z"/><path class="cls-4" d="M152,140.08l0,0-.07,0-.07,0Z"/><path class="cls-4" d="M135.86,155.59l.09.11c.05,0,.12,0,.14-.06s0-.09,0-.14Z"/><path class="cls-4" d="M130.46,157.53s-.12.05-.11.07a.89.89,0,0,0,.07.19c.05,0,.12-.07.11-.09A1.22,1.22,0,0,0,130.46,157.53Z"/><path class="cls-4" d="M130.13,161.73s-.1,0-.15,0a1.19,1.19,0,0,1,.08.16l.13-.07C130.17,161.81,130.16,161.74,130.13,161.73Z"/><path class="cls-4" d="M149.92,126.05s-.06.1,0,.11a.83.83,0,0,0,.15.11l.06-.17A.58.58,0,0,0,149.92,126.05Z"/><path class="cls-4" d="M152.06,116.46a.29.29,0,0,0,.12-.07l0-.06-.13.08S152.05,116.47,152.06,116.46Z"/><path class="cls-4" d="M126.11,153.4a1,1,0,0,0-.36.07.47.47,0,0,0-.08.52c.06.22.25.23.44.23Z"/><path class="cls-4" d="M126.11,161.44c-.37,0-.57.13-.54.3a.41.41,0,0,0,.46.35.11.11,0,0,1,.08,0Z"/><path class="cls-4" d="M126.11,149.88l-.19.15,0,0,.14.07Z"/><path class="cls-4" d="M126,166l.08,0v-.33l-.26-.18C125.59,165.85,125.62,165.92,126,166Z"/><path class="cls-4" d="M120.64,163.3a.32.32,0,0,0-.45-.29,1.17,1.17,0,0,0-.57.59l.81.55a3.53,3.53,0,0,0,.19-.53A1.67,1.67,0,0,0,120.64,163.3Z"/><path class="cls-4" d="M110,165.16a.67.67,0,0,0-.38.88,3.26,3.26,0,0,0,.52,0,.48.48,0,0,0,.3-.81A.37.37,0,0,0,110,165.16Z"/><path class="cls-4" d="M118.23,157.17a.61.61,0,0,0-.62.39c.3.55.32.56.81.32a1.74,1.74,0,0,0,.28-.19C118.6,157.43,118.52,157.2,118.23,157.17Z"/><path class="cls-4" d="M69,164.16l-.36,0a1.38,1.38,0,0,0,.24.14Z"/><path class="cls-4" d="M97.88,165.64c.09.17.24.22.48.16s.23-.1.33-.14a.89.89,0,0,0-.16-.82,4.37,4.37,0,0,0-.5.31A.38.38,0,0,0,97.88,165.64Z"/><path class="cls-4" d="M96,163.76c0,.16.18.31.31.49a1.29,1.29,0,0,0,.23-.12.57.57,0,0,0,0-.91s0,0-.05,0l-.3.06h0A1,1,0,0,0,96,163.76Z"/><path class="cls-4" d="M89,167.41a3.42,3.42,0,0,0-.36-.4c-.34.22-.36.25-.33.82l.66.07A.37.37,0,0,0,89,167.41Z"/><path class="cls-4" d="M92.4,164.06a.35.35,0,0,0,.45-.08,1.16,1.16,0,0,0,.13-.22l-.76.11A.41.41,0,0,0,92.4,164.06Z"/><path class="cls-4" d="M111.77,163.31c0,.17,0,.35.11.53a.3.3,0,0,0,.51.14,3.07,3.07,0,0,0,.28-.35C112.23,163.11,112.23,163.11,111.77,163.31Z"/><path class="cls-4" d="M110.68,161.73a.83.83,0,0,0-.23-.39.27.27,0,0,0-.42,0,.33.33,0,0,0-.1.43,5.72,5.72,0,0,0,.37.49C110.55,162.13,110.71,162,110.68,161.73Z"/><path class="cls-4" d="M106.33,165.13a.47.47,0,0,0-.38.54.34.34,0,0,0,.32.32.6.6,0,0,0,.42-.16c.06-.06,0-.26,0-.36A1.62,1.62,0,0,0,106.33,165.13Z"/><path class="cls-4" d="M86.14,165.68a.53.53,0,0,0,.84.07.66.66,0,0,0,0-.15.6.6,0,0,0-.57-.47A.4.4,0,0,0,86.14,165.68Z"/><path class="cls-4" d="M122.39,157.52c-.09-.13-.21-.24-.32-.37a1.56,1.56,0,0,0-.42.25.36.36,0,0,0,.2.61.65.65,0,0,0,.31,0A.35.35,0,0,0,122.39,157.52Z"/><path class="cls-4" d="M94,165.77c.59.41.59.41.89-.27C94.38,165.12,94.14,165.2,94,165.77Z"/><path class="cls-4" d="M120.38,155.34a.53.53,0,0,0-.12-.1c-.17-.11-.51,0-.51.23a.58.58,0,0,0,.28.55c.15.1.31,0,.44-.1l.21-.25Z"/><path class="cls-4" d="M120.34,160a3.32,3.32,0,0,0,0-.34.44.44,0,0,0,0-.16.39.39,0,0,0-.45-.26.42.42,0,0,0-.32.33.37.37,0,0,0,.31.42A2.12,2.12,0,0,0,120.34,160Z"/><path class="cls-4" d="M106.6,161.42c-.08-.08-.17-.14-.31-.27a3,3,0,0,0-.4.35.27.27,0,0,0,.16.44.7.7,0,0,0,.32,0,.65.65,0,0,0,.32-.19C106.79,161.64,106.7,161.51,106.6,161.42Z"/><path class="cls-4" d="M113.94,165.89l.17,0a.86.86,0,0,0,.22,0,.38.38,0,0,0,.3-.41c0-.13,0-.28-.15-.33s-.3,0-.42.14a2.44,2.44,0,0,0-.27.29C113.71,165.68,113.8,165.86,113.94,165.89Z"/><path class="cls-4" d="M82,165.32a.81.81,0,0,0,.42.73.26.26,0,0,0,.36-.21.64.64,0,0,0-.66-.68C82.1,165.21,82,165.27,82,165.32Z"/><path class="cls-4" d="M124.26,159.28c-.2-.12-.67.28-.64.54a.16.16,0,0,0,.08.12,1.23,1.23,0,0,0,.25.08c.1,0,.26,0,.35-.1a.43.43,0,0,0,.15-.33A.42.42,0,0,0,124.26,159.28Z"/><path class="cls-4" d="M122.3,161.9a.64.64,0,0,0-.27-.8,2.08,2.08,0,0,0-.3.43.44.44,0,0,0,0,.37.45.45,0,0,0,.31.19C122.14,162.1,122.27,162,122.3,161.9Z"/><path class="cls-4" d="M114.61,161.59c0-.09-.13-.22-.22-.28a.24.24,0,0,0-.35.08,2.32,2.32,0,0,0-.16.36.4.4,0,0,0,0,.17l.48.25A2.54,2.54,0,0,0,114.61,161.59Z"/><path class="cls-4" d="M65,163.7l.19.05v0Z"/><path class="cls-4" d="M111.71,167.62a4.18,4.18,0,0,0,.6.19c.13,0,.32-.16.34-.29a.35.35,0,0,0-.37-.35A.59.59,0,0,0,111.71,167.62Z"/><path class="cls-4" d="M108.28,167.07l-.49.39a2.66,2.66,0,0,0,.23.28.51.51,0,0,0,.2.12c.13,0,.28,0,.34-.13a.55.55,0,0,0,0-.35C108.56,167.27,108.42,167.19,108.28,167.07Z"/><path class="cls-4" d="M103.93,167.56a.49.49,0,0,0,.59.29c.11,0,.18-.17.25-.24a.54.54,0,0,0-.07-.19.51.51,0,0,0-.72-.07A.27.27,0,0,0,103.93,167.56Z"/><path class="cls-4" d="M108.7,163.83a.67.67,0,0,0-.61-.52c0,.08-.16.19-.15.29s.21.36.4.47S108.7,164,108.7,163.83Z"/><path class="cls-4" d="M96.13,167.55a1.16,1.16,0,0,0,.36.41s.2-.09.22-.16c.1-.33-.09-.51-.42-.66C96.23,167.28,96.1,167.44,96.13,167.55Z"/><path class="cls-4" d="M120,167.25a.27.27,0,0,0-.18.43.29.29,0,0,0,.41.13,3.73,3.73,0,0,0,.31-.28A.46.46,0,0,0,120,167.25Z"/><path class="cls-4" d="M124.05,163.19c-.13-.08-.36.14-.37.34s.17.43.33.37a1.48,1.48,0,0,0,.37-.32A1.68,1.68,0,0,0,124.05,163.19Z"/><path class="cls-4" d="M124.16,155.49a.46.46,0,0,0-.28.23c-.06.17.19.51.31.46s.21-.19.28-.25C124.48,155.65,124.31,155.44,124.16,155.49Z"/><path class="cls-4" d="M92.35,167.4c-.14,0-.31,0-.29.2s.16.2.27.26a.47.47,0,0,0,.31,0c.06,0,.15-.1.14-.15a.52.52,0,0,0-.12-.26s-.15,0-.19,0Z"/><path class="cls-4" d="M122.2,166.07a.62.62,0,0,0,.11-.64c0-.06-.11-.12-.18-.13s-.18,0-.2.09a.57.57,0,0,0,0,.38C121.94,165.89,122.09,166,122.2,166.07Z"/><path class="cls-4" d="M113.89,158a.35.35,0,0,0,.29-.07.42.42,0,0,0,.1-.48l-.49.24s0,0,0,.06A.33.33,0,0,0,113.89,158Z"/><path class="cls-4" d="M102,165.66c0,.19.15.41.32.37s.2-.13.27-.18a.35.35,0,0,0-.38-.39A.35.35,0,0,0,102,165.66Z"/><path class="cls-4" d="M116.35,159.39a.29.29,0,0,0-.26-.11.38.38,0,0,0-.13.25c0,.33.24.35.59.46A3.46,3.46,0,0,0,116.35,159.39Z"/><path class="cls-4" d="M116.56,163.59c0-.11-.16-.19-.29-.33-.12.18-.24.29-.26.42s.17.2.29.22A.25.25,0,0,0,116.56,163.59Z"/><path class="cls-4" d="M104.38,163.72a.41.41,0,0,0,0-.29.21.21,0,0,0-.19-.1.38.38,0,0,0-.22.19c0,.08,0,.19,0,.42C104.21,163.82,104.33,163.8,104.38,163.72Z"/><path class="cls-4" d="M118.28,165.93a1.46,1.46,0,0,0,.24-.42.36.36,0,0,0-.09-.27.24.24,0,0,0-.2-.06.38.38,0,0,0-.13.26A3.11,3.11,0,0,0,118.28,165.93Z"/><path class="cls-4" d="M112.19,160.12a.25.25,0,0,0,.27-.29c0-.11-.15-.18-.34-.4a1.52,1.52,0,0,0-.09.47A.33.33,0,0,0,112.19,160.12Z"/><path class="cls-4" d="M108.37,160.07v-.13l-.26.1.11.08S108.31,160.09,108.37,160.07Z"/><path class="cls-4" d="M90.42,165.6s.09.12.15.12a2.89,2.89,0,0,0,.53,0c-.23-.24-.35-.35-.51-.31S90.46,165.52,90.42,165.6Z"/><path class="cls-4" d="M100.09,167.67h.58C100.4,167.32,100.3,167.32,100.09,167.67Z"/><path class="cls-4" d="M123.75,152.14c.09-.12.2-.2.2-.28s-.09-.13-.16-.16l-.23.17C123.57,152,123.66,152,123.75,152.14Z"/><path class="cls-4" d="M118.39,161.79c0-.17-.06-.32-.23-.3a1.19,1.19,0,0,0,0,.33s.12.07.19.09S118.38,161.84,118.39,161.79Z"/><path class="cls-4" d="M124.25,167.52h0Z"/><path class="cls-4" d="M84.53,167.37l.3,0c-.06-.06-.11-.11-.16-.11S84.58,167.34,84.53,167.37Z"/><path class="cls-4" d="M125.73,157.68a.67.67,0,0,0-.07.18s.09.08.1.07l.12-.16Z"/><path class="cls-4" d="M102.47,161.81l-.21.05s0,0,.07.06S102.45,161.88,102.47,161.81Z"/><path class="cls-4" d="M116.16,167.42l.13.07.06-.05-.14-.07Z"/><path class="cls-3" d="M100.75,173c-20,0-40.15-.53-51.9-12.27-6.29-6.28-9.48-15.3-9.48-26.82,0-27.12,19.93-63.48,38.85-81.09.45-3.17.44-15.13-23.32-22.21A3.41,3.41,0,0,1,53.4,25a67.1,67.1,0,0,1,18-12.81c13-6.28,25.85-6.64,37.45-1.12l1.25-5.13a3.42,3.42,0,0,1,4.47-2.41A35.89,35.89,0,0,1,133.9,22.14a3.43,3.43,0,0,1-1.44,4.32c-.18.1-17.7,10.42-15.9,23.59,16.67,14.66,41.27,46.72,43.21,77.75h0c.94,15.06-1.93,25.93-8.78,33.22-9.35,9.95-24.47,12-44.29,12h-6ZM84.68,55.31a3.34,3.34,0,0,1-1.05,1.83c-18.07,16.33-37.42,51.08-37.42,76.78,0,9.77,2.44,17,7.47,22,10.34,10.33,30.55,10.29,50.07,10.27h3c18,0,31.64-1.67,39.31-9.83,5.48-5.84,7.75-15,6.94-28.11h0c-1.85-29.51-26-60.3-41.78-73.8A3.45,3.45,0,0,1,110,52.26c-3-14.7,10.39-25.83,16.34-30a29.35,29.35,0,0,0-10.6-10.58L114.44,17a3.42,3.42,0,0,1-5.1,2.11C98.71,12.59,87,12.31,74.55,18.26A61.19,61.19,0,0,0,62.5,26c9.85,3.79,16.6,9,20.1,15.53A19.79,19.79,0,0,1,84.68,55.31Z"/><path class="cls-3" d="M97,62.41a59.74,59.74,0,0,1-17.15-2.52c-1.91-.57-3.09-3-2.63-5.35s2.38-3.84,4.29-3.27a54.1,54.1,0,0,0,31,0c1.91-.57,3.83.89,4.29,3.27s2,4.06.1,4.63A81.1,81.1,0,0,1,97,62.41Z"/><path class="cls-5" d="M97,58.3a59.73,59.73,0,0,1-17.15-2.51c-1.91-.57-3.09-3-2.63-5.35s2.38-3.85,4.29-3.28a53.93,53.93,0,0,0,31,0c1.91-.56,3.83.9,4.29,3.28s-.72,4.78-2.63,5.35A59.73,59.73,0,0,1,97,58.3Z"/><path class="cls-3" d="M97,60.36a61.84,61.84,0,0,1-17.74-2.61c-2.94-.87-4.72-4.26-4.06-7.7A6.38,6.38,0,0,1,78,45.74a4.93,4.93,0,0,1,4-.54,52,52,0,0,0,29.8,0,5,5,0,0,1,4,.54,6.36,6.36,0,0,1,2.85,4.31c.67,3.44-1.11,6.83-4,7.7A61.84,61.84,0,0,1,97,60.36ZM80.64,49.09a1,1,0,0,0-.5.15,2.4,2.4,0,0,0-1,1.59c-.27,1.43.41,2.76,1.21,3a58,58,0,0,0,33.12,0c.8-.24,1.48-1.57,1.21-3a2.35,2.35,0,0,0-1-1.58.87.87,0,0,0-.74-.12,56,56,0,0,1-32.14,0A.77.77,0,0,0,80.64,49.09Z"/><path class="cls-3" d="M109.22,26.84a3.26,3.26,0,0,1-.87-.12,3.41,3.41,0,0,1-2.44-4.17l1.91-7.24a3.42,3.42,0,0,1,6.61,1.74l-1.91,7.24A3.41,3.41,0,0,1,109.22,26.84Z"/><path class="cls-3" d="M93.05,51.34a2.06,2.06,0,0,1-2-1.55c0-.11-2.8-11-10.72-18.45a2.05,2.05,0,0,1,2.81-3c8.82,8.29,11.77,20,11.9,20.45a2,2,0,0,1-1.5,2.48A2.14,2.14,0,0,1,93.05,51.34Z"/><path class="cls-3" d="M103.19,51.12a2.22,2.22,0,0,1-.51-.06,2,2,0,0,1-1.47-2.5l3.21-12.43a2.05,2.05,0,1,1,4,1l-3.21,12.42A2,2,0,0,1,103.19,51.12Z"/><path class="cls-3" d="M125.29,87a2.05,2.05,0,0,1-1.81-1.08C114,68.17,105,61.46,105,61.4a2.05,2.05,0,0,1,2.43-3.31c.4.29,9.79,7.34,19.72,25.86a2.07,2.07,0,0,1-.84,2.78A2.11,2.11,0,0,1,125.29,87Z"/><path class="cls-3" d="M125.41,198.67c-5.44,0-8.11-4.08-9.88-6.78-1.53-2.34-2.14-3.07-3-3.07s-1.47.73-3,3.07c-1.77,2.7-4.43,6.78-9.87,6.78s-8.11-4.08-9.87-6.78c-1.53-2.34-2.15-3.07-3-3.07s-1.47.73-3,3.07c-1.77,2.7-4.43,6.78-9.87,6.78s-8.11-4.08-9.87-6.78c-1.53-2.34-2.14-3.07-3-3.07a4.1,4.1,0,0,1,0-8.2c5.44,0,8.1,4.08,9.87,6.78,1.52,2.34,2.14,3.07,3,3.07s1.47-.73,3-3.07c1.77-2.7,4.43-6.78,9.87-6.78s8.11,4.08,9.87,6.78c1.53,2.34,2.15,3.07,3,3.07s1.47-.73,3-3.07c1.77-2.7,4.44-6.78,9.87-6.78s8.11,4.08,9.88,6.78c1.53,2.34,2.14,3.07,3,3.07s1.47-.73,3-3.07c1.76-2.7,4.43-6.78,9.87-6.78a4.1,4.1,0,0,1,0,8.2c-.87,0-1.48.73-3,3.07C133.51,194.59,130.84,198.67,125.41,198.67Z"/></svg>